<svg xmlns="http://www.w3.org/2000/svg" viewBox="0 0 199.04 97.83"><defs><style>.cls-1{fill:#1d1d1b;}.cls-2{fill:#e20613;}.cls-3{fill:#fff;}.cls-4{fill:#575756;}</style></defs><g id="Layer_2" data-name="Layer 2"><g id="Layer_1-2" data-name="Layer 1"><path class="cls-1" d="M7.83,71.33v.09a1.9,1.9,0,0,1,.88.22,2,2,0,0,1,.63.68h.05a1.29,1.29,0,0,0-.24-.78,1,1,0,0,0-.72-.24l-.26,0H7.83m-3.69.06,0,.06a.69.69,0,0,1,.2.25.6.6,0,0,1,.08.29v7.52a3.64,3.64,0,0,1-.13,1,.69.69,0,0,1-.32.49l0,.07a.8.8,0,0,0,.57-.49,3.55,3.55,0,0,0,.17-1.28V73a3.45,3.45,0,0,0-.13-1.19.68.68,0,0,0-.43-.41M.5,72.56H.56A1.66,1.66,0,0,1,1,71.83a2.38,2.38,0,0,1,.89-.47v0H1.82l-.26,0a1,1,0,0,0-.8.3,1.28,1.28,0,0,0-.26.88Zm2.6-1.73H6.57c.5,0,1,0,1.6-.06l1-.07c.24,0,.39,0,.44.09a.63.63,0,0,1,.12.38l.12,1.62v.13a.87.87,0,0,1,0,.31.26.26,0,0,1-.18,0c-.16,0-.28-.12-.35-.37s-.09-.31-.13-.42a1.1,1.1,0,0,0-.59-.64,3.44,3.44,0,0,0-1.32-.18H7A1.86,1.86,0,0,0,6,71.8c-.12.09-.17.3-.17.63v7a2.27,2.27,0,0,0,.19,1,1.12,1.12,0,0,0,.6.55,2.57,2.57,0,0,0,.44.12c.34.06.51.18.51.37a.36.36,0,0,1-.09.26.36.36,0,0,1-.27.08l-.81-.06a12.18,12.18,0,0,0-1.29-.07c-.38,0-.84,0-1.38.07l-1,.06a.48.48,0,0,1-.31-.08.26.26,0,0,1-.1-.23c0-.17.14-.29.43-.37a2.05,2.05,0,0,0,.43-.15,1.12,1.12,0,0,0,.61-.54,2.21,2.21,0,0,0,.2-1V72.37c0-.32,0-.52-.16-.6a1.69,1.69,0,0,0-.81-.13,4.3,4.3,0,0,0-1.54.2,1.23,1.23,0,0,0-.65.64,5.73,5.73,0,0,0-.25.79c-.08.35-.22.53-.4.53l-.19-.09a.57.57,0,0,1,0-.26s0-.1,0-.23a17,17,0,0,0,.22-1.87,1.09,1.09,0,0,1,.11-.53.3.3,0,0,1,.28-.12c.1,0,.43,0,1,.07s1.05.06,1.49.06"/><path class="cls-1" d="M17.13,73.52v0a1,1,0,0,1,.57.4,1.3,1.3,0,0,1,.22.74H18v-.15c0-.21,0-.35,0-.42a.5.5,0,0,0-.21-.46,1.2,1.2,0,0,0-.66-.16m-5.89.2v0a.75.75,0,0,1,.27.42,4.07,4.07,0,0,1,.08,1v2.25a7,7,0,0,0,.49,3.21,2.65,2.65,0,0,0,1.78,1.05v0a3,3,0,0,1-1.55-1.12,6,6,0,0,1-.43-2.76V75.08a2.13,2.13,0,0,0-.14-.92.87.87,0,0,0-.48-.44m1.55,2.07v2.12a9.28,9.28,0,0,0,.08,1.42,2.35,2.35,0,0,0,.26.76,2.14,2.14,0,0,0,.81.85,2.36,2.36,0,0,0,1.17.28A2.89,2.89,0,0,0,16.22,81a2.2,2.2,0,0,0,.84-.62,2.4,2.4,0,0,0,.51-1,8.43,8.43,0,0,0,.15-1.83V75.4a3.53,3.53,0,0,0-.11-1.08.88.88,0,0,0-.36-.48,2.2,2.2,0,0,0-.6-.14c-.28,0-.42-.13-.42-.28l.07-.17a.51.51,0,0,1,.24,0l.5,0a5.4,5.4,0,0,0,.77,0,4.67,4.67,0,0,0,.72,0l.42,0a.33.33,0,0,1,.21,0l.06.15c0,.11-.08.19-.25.25a1.21,1.21,0,0,0-.35.19c-.11.06-.18.21-.22.45a15.32,15.32,0,0,0,0,1.72v1.56a5,5,0,0,1-.93,3.29A3.46,3.46,0,0,1,14.63,82,3.09,3.09,0,0,1,12.11,81a5.06,5.06,0,0,1-.77-3.14v-3a2,2,0,0,0-.09-.71.58.58,0,0,0-.32-.33,1.88,1.88,0,0,0-.51-.13c-.24,0-.37-.14-.37-.28l.08-.17a.38.38,0,0,1,.24-.06l.54,0a9.34,9.34,0,0,0,1.93,0l.62,0a.49.49,0,0,1,.25,0l.08.16c0,.1-.09.19-.27.25a1.46,1.46,0,0,0-.41.18.69.69,0,0,0-.25.49,9.2,9.2,0,0,0-.07,1.46m3.48-4.3.31-.65-.08-.09-.57.62,0,.07,0,.06v.07l0,0,.61.57.12-.1Zm-3,0,.35-.65-.08-.09-.59.62-.05.07v.12l0,0,.59.57.13-.1Zm3.46-1,.72.76.05.09v.12l0,.11-.06.09-.74.74-.08,0-.12,0-.11,0-.1-.06-.72-.75-.05-.08,0-.12,0-.11.07-.08.75-.75.08,0h.23l.09,0m-2.95,0,.71.76.06.1,0,.11,0,.11-.06.09-.76.74-.08,0-.11,0-.11,0-.09-.06-.74-.75,0-.08v-.23l.07-.08.77-.75.08,0h.23l.08,0"/><path class="cls-1" d="M24,77.7l0,.08.17.19a3.78,3.78,0,0,1,.19.33l.94,1.86a4.43,4.43,0,0,0,.68,1,1.65,1.65,0,0,0,.76.47l0-.07a1.58,1.58,0,0,1-.55-.5,8,8,0,0,1-.64-1L24.53,78a.7.7,0,0,0-.17-.25l-.21-.06H24m.33-4a2.64,2.64,0,0,1,.8.88,2.14,2.14,0,0,1,.27,1.06,2.41,2.41,0,0,1-.1.76A1.42,1.42,0,0,1,25,77l0,0a1.4,1.4,0,0,0,.5-.6,1.91,1.91,0,0,0,.18-.86,1.84,1.84,0,0,0-.36-1.16,1.8,1.8,0,0,0-1-.68m-3.67,0a1.06,1.06,0,0,1,.41.48,2.15,2.15,0,0,1,.13.78v4.76a3.85,3.85,0,0,1-.11,1.07,1.42,1.42,0,0,1-.36.58.76.76,0,0,0,.56-.45,3.28,3.28,0,0,0,.16-1.24V75a1.78,1.78,0,0,0-.18-.9,1,1,0,0,0-.61-.44m4.45,3.81.21.18a3.28,3.28,0,0,1,.21.33l1.23,2.29a2.48,2.48,0,0,0,.45.64.71.71,0,0,0,.46.16h.15L28,81l.13,0,.05.13q0,.24-.42.45a1.87,1.87,0,0,1-.9.22,1.39,1.39,0,0,1-1-.49,7.25,7.25,0,0,1-1.06-1.73l-.1-.23A7.72,7.72,0,0,0,23.89,78a1.08,1.08,0,0,0-.3-.16,2.69,2.69,0,0,0-.59,0,.74.74,0,0,0-.41.08.46.46,0,0,0-.11.34V80a2.11,2.11,0,0,0,.13.78.84.84,0,0,0,.42.41,1.69,1.69,0,0,0,.32.12q.33.09.33.3a.29.29,0,0,1-.06.21.35.35,0,0,1-.23.06l-.53-.05c-.33,0-.64,0-.94,0s-.66,0-1,0l-.64.05a.34.34,0,0,1-.22-.06L20,81.63c0-.12.1-.23.31-.32l.25-.13a1,1,0,0,0,.37-.44A1.79,1.79,0,0,0,21,80V75.24a3.45,3.45,0,0,0-.07-.86.9.9,0,0,0-.23-.4,1,1,0,0,0-.58-.25c-.26,0-.38-.13-.38-.28l.07-.18A.31.31,0,0,1,20,73.2l.26,0a13.12,13.12,0,0,0,1.34.08l1.07,0c.5,0,.89-.06,1.18-.06a3.35,3.35,0,0,1,2.11.59,2.06,2.06,0,0,1,.74,1.69,1.9,1.9,0,0,1-.39,1.22,2.5,2.5,0,0,1-1.19.75m-2.64-.81c0,.27.06.44.17.5a2.33,2.33,0,0,0,.83.09,2.09,2.09,0,0,0,1.32-.34,1.36,1.36,0,0,0,.41-1.12,2.06,2.06,0,0,0-.53-1.51,1.92,1.92,0,0,0-1.46-.56.76.76,0,0,0-.58.19,1.31,1.31,0,0,0-.16.79Z"/><path class="cls-1" d="M29.14,73.64l0,0a.88.88,0,0,1,.44.43,2,2,0,0,1,.12.78v4.76a3.94,3.94,0,0,1-.1,1.07,1.53,1.53,0,0,1-.36.58l0,0a1,1,0,0,0,.54-.51,3.35,3.35,0,0,0,.15-1.22V75a1.67,1.67,0,0,0-.19-.9.91.91,0,0,0-.6-.44m3,4.33,2.11,2.92a3.61,3.61,0,0,0,.47.57.4.4,0,0,0,.28.13l.06,0,0-.06-.1-.15-.13-.15-2.63-3.6-.09-.09-.07,0-.1.06-.05.1.05.12.16.23m2-4.47,0,.06a.92.92,0,0,1,.31.19.51.51,0,0,1,.06.27l0,.25a1.07,1.07,0,0,1-.16.29l0,0,.08-.08a1.19,1.19,0,0,0,.36-.59.32.32,0,0,0-.15-.28.87.87,0,0,0-.47-.15m-3.27,1.62v2a.81.81,0,0,0,0,.28l.1.06.1,0,.13-.09,1.39-1.32a13.15,13.15,0,0,0,1.21-1.28,1.73,1.73,0,0,0,.45-.77.28.28,0,0,0-.09-.22.66.66,0,0,0-.28-.11h-.07c-.19,0-.28-.11-.28-.27l.06-.15.18,0,.6,0c.29,0,.53,0,.72,0a6.22,6.22,0,0,0,.71,0l.49,0a.32.32,0,0,1,.22.06l.07.17c0,.12-.1.21-.29.28a1.79,1.79,0,0,0-.39.18,2.49,2.49,0,0,0-.66.41,12.77,12.77,0,0,0-1,.84l-1.3,1.25-.2.21-.06.18.05.15a2.38,2.38,0,0,0,.14.23l2.29,3.09a4.12,4.12,0,0,0,.49.59,1.29,1.29,0,0,0,.36.27,1.51,1.51,0,0,0,.42.25c.15,0,.23.11.23.19a.28.28,0,0,1-.08.22.25.25,0,0,1-.21.07l-.48,0a3.38,3.38,0,0,0-.46,0,1.87,1.87,0,0,0-.37,0l-.3,0-.25-.1a1.21,1.21,0,0,1-.27-.28l-2.53-3.54-.09-.1-.07,0-.07,0-.12.09-.39.35-.12.19a1,1,0,0,0,0,.36v.86a3.52,3.52,0,0,0,.1,1,.75.75,0,0,0,.33.41,1.28,1.28,0,0,0,.45.2c.21.06.32.16.32.29l-.06.19s-.11,0-.22,0l-.58,0c-.33,0-.63,0-.9,0s-.67,0-1,0l-.63,0a.37.37,0,0,1-.23,0l-.07-.17c0-.12.11-.22.31-.31a1.69,1.69,0,0,0,.41-.2,1.19,1.19,0,0,0,.26-.48,3.7,3.7,0,0,0,.07-.87V75.24a3.59,3.59,0,0,0-.07-.87,1.26,1.26,0,0,0-.26-.48,1.29,1.29,0,0,0-.63-.17c-.28,0-.43-.11-.43-.26l.09-.19a.32.32,0,0,1,.23-.07l.55,0c.35,0,.7,0,1,0s1,0,1.51-.08l.22,0,.17.06.06.16c0,.12-.09.21-.28.27a1.23,1.23,0,0,0-.4.2.93.93,0,0,0-.25.38,3,3,0,0,0-.07.74Z"/><path class="cls-1" d="M40.06,75.12V80a1.85,1.85,0,0,0,.15.82.71.71,0,0,0,.48.37,1.68,1.68,0,0,0,.4.11c.28.07.42.17.42.31l-.08.2a.37.37,0,0,1-.26.07l-.67-.05c-.4,0-.77,0-1.11,0s-.56,0-.91,0l-.64.05a.32.32,0,0,1-.22-.07l-.07-.18c0-.12.12-.24.37-.33l.25-.11a.82.82,0,0,0,.32-.42A2.2,2.2,0,0,0,38.6,80V75.24a3.69,3.69,0,0,0-.07-.93.86.86,0,0,0-.26-.37,1.3,1.3,0,0,0-.64-.2c-.28,0-.42-.14-.42-.28l.07-.19a.33.33,0,0,1,.23-.07l.18,0a7.36,7.36,0,0,0,1,.07c.73,0,1.4,0,2-.08h.12l.19.06.06.16c0,.12-.1.21-.3.28a1.13,1.13,0,0,0-.43.24.72.72,0,0,0-.21.39,3.74,3.74,0,0,0-.07.79m-1.77-1.48,0,0a.86.86,0,0,1,.43.43,1.8,1.8,0,0,1,.13.78v4.76a3.94,3.94,0,0,1-.1,1.07,1.42,1.42,0,0,1-.36.58l0,0a1,1,0,0,0,.54-.5,3.09,3.09,0,0,0,.16-1.22V75a1.78,1.78,0,0,0-.18-.9,1,1,0,0,0-.62-.44"/><path class="cls-1" d="M47.48,73.59l0,0a.91.91,0,0,1,.34.25.53.53,0,0,1,.12.35l0,.22a2.18,2.18,0,0,1-.07.27l.06,0a1.24,1.24,0,0,0,.22-.34.88.88,0,0,0,.08-.33.4.4,0,0,0-.18-.35.94.94,0,0,0-.51-.14m-4.85.11,0,0a2.34,2.34,0,0,1,.31.32,1.68,1.68,0,0,1,.21.27l1.77,3.36a3.19,3.19,0,0,1,.25.69,5,5,0,0,1,.08,1v.54a2.86,2.86,0,0,1-.1.86.93.93,0,0,1-.32.44l0,.05a.91.91,0,0,0,.54-.42,3,3,0,0,0,.15-1.18v-.29a4,4,0,0,0-.44-2l-.1-.17-1.49-2.82a1.51,1.51,0,0,0-.36-.44,1.42,1.42,0,0,0-.5-.27m5.66.78-1.77,3.25-.1.25a1.27,1.27,0,0,0,0,.32v1.47a3.33,3.33,0,0,0,.09,1,.83.83,0,0,0,.31.44,1.9,1.9,0,0,0,.59.15c.3,0,.44.13.44.29a.24.24,0,0,1-.07.2.3.3,0,0,1-.23.07l-.67-.05c-.38,0-.73,0-1,0s-.72,0-1.16,0l-.81.05a.36.36,0,0,1-.25-.07l-.1-.18c0-.13.13-.23.37-.28a1.67,1.67,0,0,0,.54-.18.71.71,0,0,0,.38-.38,2.47,2.47,0,0,0,.11-.89V78.5a1.15,1.15,0,0,0-.15-.56l0,0L43,74.63a2.41,2.41,0,0,0-.37-.55,1.37,1.37,0,0,0-.39-.33,1.85,1.85,0,0,0-.29-.08c-.23,0-.34-.13-.34-.26l.07-.16a.47.47,0,0,1,.25,0h.17c.46,0,.92.07,1.38.07s.79,0,1.2-.06l.2,0a.43.43,0,0,1,.23,0l.06.16c0,.1-.12.19-.34.27s-.35.22-.35.4l0,.22a2.14,2.14,0,0,0,.12.28L46,77.17l.07.09.07,0,.07,0,.08-.12L47.43,75l0-.06a1.49,1.49,0,0,0,.22-.57.6.6,0,0,0-.13-.42.69.69,0,0,0-.41-.2,2.68,2.68,0,0,0-.33-.08c-.21,0-.32-.12-.32-.25l.07-.17a.42.42,0,0,1,.22,0l.2,0c.38,0,.75.06,1.09.06l.25,0h0l.31,0,.5,0,.18,0,.06.15a.28.28,0,0,1-.21.26l-.16.09a.7.7,0,0,0-.38.21,2.59,2.59,0,0,0-.36.52"/><path class="cls-1" d="M50.86,73.64a1,1,0,0,1,.4.48,2,2,0,0,1,.13.78v4.76a3.81,3.81,0,0,1-.1,1.06,1.49,1.49,0,0,1-.36.59.8.8,0,0,0,.56-.45,3.5,3.5,0,0,0,.16-1.24V75a1.74,1.74,0,0,0-.19-.91,1,1,0,0,0-.6-.43m3.44,7.69v0h.12l.32,0a1.65,1.65,0,0,0,1-.27,1.41,1.41,0,0,0,.56-.8l0,0a2.48,2.48,0,0,1-.8.68,4,4,0,0,1-1.15.36m-.12-4.17v.07a1.75,1.75,0,0,1,.3.1,1.35,1.35,0,0,1,.26.15h0l0-.71h-.06a1,1,0,0,1-.51.39m.42-3.57,0,0a2.7,2.7,0,0,1,.77.24,1.11,1.11,0,0,1,.4.43l.06,0a.86.86,0,0,0-.19-.59.89.89,0,0,0-.61-.17H54.6m-2,.89v1.91a.58.58,0,0,0,.12.39.59.59,0,0,0,.41.12h.39a1.94,1.94,0,0,0,.66-.09.89.89,0,0,0,.41-.33,1.94,1.94,0,0,0,.2-.35c.1-.23.22-.35.35-.35l.15.08.05.18s0,.1,0,.28a4.93,4.93,0,0,0,0,.55q0,.73.06,1.5c0,.11,0,.17,0,.19l-.05.17-.13.06c-.14,0-.22-.11-.25-.33a2,2,0,0,0-.08-.36.94.94,0,0,0-.4-.5,1.93,1.93,0,0,0-.84-.14h-.47a.5.5,0,0,0-.41.13,1,1,0,0,0-.11.56v1.9a1.43,1.43,0,0,0,.2.94,1.16,1.16,0,0,0,.78.18,3.77,3.77,0,0,0,1.2-.19,2.86,2.86,0,0,0,1-.51,2.07,2.07,0,0,0,.46-.55c.13-.22.23-.33.31-.33l.13.08,0,.17a2.11,2.11,0,0,1-.13.64,2.78,2.78,0,0,1-.35.69,1.38,1.38,0,0,1-.64.53,2.46,2.46,0,0,1-1,.17l-1-.05c-.5,0-.92,0-1.27,0s-.84,0-1.26,0l-.67.05a.31.31,0,0,1-.22-.07l-.07-.18c0-.11.1-.21.29-.31l.27-.16a.78.78,0,0,0,.37-.41,1.8,1.8,0,0,0,.12-.72V75.24a3.3,3.3,0,0,0-.07-.85,1,1,0,0,0-.26-.41,1.15,1.15,0,0,0-.64-.24c-.28,0-.42-.14-.42-.29l.08-.18a.34.34,0,0,1,.24-.07h.14c.68.06,1.42.09,2.21.09.58,0,1.22,0,1.93,0l1.29,0a.66.66,0,0,1,.4.08c.06,0,.08.17.08.36v.26c0,.3,0,.61,0,.93v.1a.31.31,0,0,1,0,.2l-.15.05c-.13,0-.21-.1-.23-.29a1.49,1.49,0,0,0-.09-.42,1.06,1.06,0,0,0-.64-.54,4.84,4.84,0,0,0-1.4-.15,1.44,1.44,0,0,0-.77.15.66.66,0,0,0-.22.55"/><path class="cls-1" d="M39,71.17l.45-.74-.09-.11-.68.71,0,.08v.14l0,0,.69.66.15-.11Zm.61-1,.75.77,0,.09,0,.11,0,.12-.06.09-.77.77-.09,0-.12,0-.11,0-.1-.06-.75-.78-.06-.09,0-.12,0-.11,0-.1.79-.77.08,0,.13,0,.11,0,.09.06"/><path class="cls-1" d="M67.54,76.37v.09a2.1,2.1,0,0,1,1,.91,2.76,2.76,0,0,1,.38,1.44,3,3,0,0,1-.3,1.37,2.63,2.63,0,0,1-.87,1l0,.07a2.6,2.6,0,0,0,1.13-1,2.91,2.91,0,0,0,.41-1.52,2.37,2.37,0,0,0-.47-1.47,2.46,2.46,0,0,0-1.34-.85m-.6-5.09,0,.1a2.45,2.45,0,0,1,1.08,1A3.22,3.22,0,0,1,68.36,74a1.87,1.87,0,0,1-.09.61,1.66,1.66,0,0,1-.27.53l.08,0a2.11,2.11,0,0,0,.45-.69,2.52,2.52,0,0,0,.15-.89,2.39,2.39,0,0,0-.48-1.48,2.13,2.13,0,0,0-1.26-.84m-4.37,0a1.25,1.25,0,0,1,.49.62,2.62,2.62,0,0,1,.16,1v6.16a5.13,5.13,0,0,1-.13,1.38,1.9,1.9,0,0,1-.43.74.9.9,0,0,0,.67-.58,4.44,4.44,0,0,0,.2-1.59v-6a2.46,2.46,0,0,0-.22-1.17,1.2,1.2,0,0,0-.74-.56m2.12,8.23A1.92,1.92,0,0,0,65,80.92a1.78,1.78,0,0,0,1.25.33A2.25,2.25,0,0,0,68,80.6a2.37,2.37,0,0,0,.63-1.73A2.42,2.42,0,0,0,67.88,77a3,3,0,0,0-2.09-.68,1.51,1.51,0,0,0-.9.18c-.14.12-.2.44-.2,1Zm3.39-3.83a2.36,2.36,0,0,1,1.72.84,3,3,0,0,1,.67,2,3.57,3.57,0,0,1-.28,1.4,3.15,3.15,0,0,1-.75,1.12,3,3,0,0,1-1.17.69,6,6,0,0,1-1.79.21c-.5,0-1,0-1.62-.07l-1-.06c-.33,0-.71,0-1.13.06L62,82a.4.4,0,0,1-.26-.08.3.3,0,0,1-.09-.24c0-.15.13-.29.37-.41a1.26,1.26,0,0,0,.3-.17,1.18,1.18,0,0,0,.45-.56,2.58,2.58,0,0,0,.14-.92V73.39a5.26,5.26,0,0,0-.08-1.09,1.18,1.18,0,0,0-.31-.53,1.37,1.37,0,0,0-.77-.32q-.51-.08-.51-.36a.33.33,0,0,1,.1-.24.41.41,0,0,1,.28-.09l.24,0a14.17,14.17,0,0,0,1.57.09q.45,0,1.44-.06c.65,0,1.15-.06,1.49-.06a3.74,3.74,0,0,1,2.44.74,2.4,2.4,0,0,1,.91,2,2.33,2.33,0,0,1-.41,1.39,2.76,2.76,0,0,1-1.25.86m-3.39-.91a.73.73,0,0,0,.27.68,3.77,3.77,0,0,0,1.39.15,1.74,1.74,0,0,0,1.3-.4A1.9,1.9,0,0,0,68,73.92a2.48,2.48,0,0,0-.65-1.81,2.24,2.24,0,0,0-1.7-.69.94.94,0,0,0-.78.29,2.12,2.12,0,0,0-.21,1.15Z"/><path class="cls-1" d="M73.83,75.18v4.87a1.85,1.85,0,0,0,.15.82.71.71,0,0,0,.48.37,1.68,1.68,0,0,0,.4.11c.28.07.43.17.43.31l-.09.2a.38.38,0,0,1-.26.07l-.67-.05c-.4,0-.77,0-1.11,0s-.56,0-.91,0l-.64.05a.32.32,0,0,1-.22-.07l-.08-.18c0-.12.13-.23.38-.33l.25-.11a.78.78,0,0,0,.32-.42,2.2,2.2,0,0,0,.11-.73V75.3a3.59,3.59,0,0,0-.07-.92A.76.76,0,0,0,72,74a1.2,1.2,0,0,0-.64-.21c-.28,0-.42-.14-.42-.28l.07-.19a.33.33,0,0,1,.23-.07l.18,0a7.32,7.32,0,0,0,1,.07c.74,0,1.41,0,2-.08h.12l.19.06.06.16c0,.12-.1.21-.3.28a1,1,0,0,0-.43.25.61.61,0,0,0-.21.39,3,3,0,0,0-.07.78M72.06,73.7l0,0a.86.86,0,0,1,.43.43,1.8,1.8,0,0,1,.13.78v4.76a3.89,3.89,0,0,1-.1,1.07,1.53,1.53,0,0,1-.36.58l0,0a1.13,1.13,0,0,0,.55-.5,3.48,3.48,0,0,0,.15-1.24V75a1.78,1.78,0,0,0-.18-.9,1,1,0,0,0-.62-.44"/><path class="cls-1" d="M80.39,81.4l0,.06.26,0h.18a1.69,1.69,0,0,0,1-.27,1.57,1.57,0,0,0,.57-.82l0,0a2.83,2.83,0,0,1-.85.66,3.85,3.85,0,0,1-1.13.36m-1.62-6.22v5a1.35,1.35,0,0,0,.2.91,1.38,1.38,0,0,0,.77.16,4.07,4.07,0,0,0,1.2-.19,2.92,2.92,0,0,0,1-.52,2.47,2.47,0,0,0,.44-.55c.13-.21.23-.32.31-.32l.12.07.06.17a2.31,2.31,0,0,1-.14.65,2.77,2.77,0,0,1-.33.69,1.47,1.47,0,0,1-.64.52,2.5,2.5,0,0,1-1,.17l-1-.05c-.51,0-.93,0-1.28,0s-.84,0-1.27,0l-.67.05a.36.36,0,0,1-.22-.06l-.07-.19c0-.1.09-.21.29-.31l.29-.17a.85.85,0,0,0,.37-.4,2,2,0,0,0,.12-.71V75.3a3.25,3.25,0,0,0-.08-.84A1.23,1.23,0,0,0,77,74a1.33,1.33,0,0,0-.63-.2q-.42-.06-.42-.27l.07-.19a.33.33,0,0,1,.23-.07l.56.06c.35,0,.7,0,1,0s1,0,1.51-.08l.21,0,.18.07.06.19q0,.15-.27.24a1.14,1.14,0,0,0-.4.23.81.81,0,0,0-.26.37,2.87,2.87,0,0,0-.08.82M77,73.7l0,0a.88.88,0,0,1,.44.43,1.81,1.81,0,0,1,.14.78v4.76a3.8,3.8,0,0,1-.11,1.07,1.42,1.42,0,0,1-.36.58v0a1,1,0,0,0,.55-.52,3,3,0,0,0,.17-1.22V75a1.77,1.77,0,0,0-.19-.9A1,1,0,0,0,77,73.7"/><path class="cls-1" d="M85.62,75.18v4.87a1.85,1.85,0,0,0,.15.82.68.68,0,0,0,.47.37,1.79,1.79,0,0,0,.41.11c.28.07.42.17.42.31l-.08.2a.38.38,0,0,1-.26.07l-.68-.05c-.4,0-.76,0-1.1,0s-.56,0-.91,0l-.64.05a.29.29,0,0,1-.22-.07l-.08-.18c0-.12.13-.23.38-.33l.24-.11a.78.78,0,0,0,.32-.42,2,2,0,0,0,.12-.73V75.3a4.14,4.14,0,0,0-.07-.92.72.72,0,0,0-.27-.37,1.16,1.16,0,0,0-.63-.21c-.29,0-.43-.14-.43-.28l.08-.19a.31.31,0,0,1,.22-.07l.18,0a7.36,7.36,0,0,0,1,.07c.74,0,1.4,0,2-.08h.12l.19.06.07.16c0,.12-.1.21-.3.28a.9.9,0,0,0-.43.25.66.66,0,0,0-.22.39,3.7,3.7,0,0,0-.06.78M83.85,73.7l0,0a.92.92,0,0,1,.44.43,2,2,0,0,1,.13.78v4.76a3.8,3.8,0,0,1-.11,1.07,1.42,1.42,0,0,1-.36.58l0,0a1.1,1.1,0,0,0,.54-.5,3.48,3.48,0,0,0,.15-1.24V75a1.78,1.78,0,0,0-.18-.9,1,1,0,0,0-.61-.44"/><path class="cls-1" d="M96.65,74.09l-.05,0a1.91,1.91,0,0,0-.25.67,4.28,4.28,0,0,0-.08.94v.22l.17,4v.52a2.24,2.24,0,0,1-.07.66.85.85,0,0,1-.22.38v.06a1,1,0,0,0,.43-.44,1.49,1.49,0,0,0,.13-.69c0-.08,0-.19,0-.34l-.14-3.54c0-.08,0-.18,0-.31v-.69c0-.27,0-.52,0-.74a6.18,6.18,0,0,1,.07-.62M89,73.67v.07a3,3,0,0,1,1,1.36l.09.19,2.56,5.64.08.14.07,0,.09,0,0-.08,0-.14a3,3,0,0,0-.13-.33l-2.23-4.94,0-.06c-.49-1.09-1-1.71-1.5-1.84M89.42,80h-.07a2.74,2.74,0,0,1-.19.91,1,1,0,0,1-.42.51v.07a.89.89,0,0,0,.56-.25.82.82,0,0,0,.18-.56,2.36,2.36,0,0,0,0-.25c0-.11,0-.25,0-.43m8.08-5,.14,4.9a2.52,2.52,0,0,0,.11.85.94.94,0,0,0,.34.45,1.14,1.14,0,0,0,.45.19c.17,0,.25.09.26.21a.28.28,0,0,1-.08.22.31.31,0,0,1-.24.07L98,81.88c-.31,0-.61,0-.89,0s-.6,0-.91,0l-.51.05a.36.36,0,0,1-.22-.06.28.28,0,0,1-.07-.2c0-.1.09-.2.26-.29l.23-.14a.79.79,0,0,0,.3-.31,1.44,1.44,0,0,0,.08-.53v-.27l-.16-3.79,0-.21L96,76l-.11.09a2,2,0,0,0-.14.23l-2.57,5.22a1.24,1.24,0,0,1-.14.21l-.15,0c-.11,0-.19-.07-.25-.22l0,0-2.38-5.25a.67.67,0,0,0-.1-.18l-.08,0-.07.07a2.43,2.43,0,0,0,0,.25l-.11,3V80a2.21,2.21,0,0,0,.14.9.68.68,0,0,0,.44.39,1.21,1.21,0,0,0,.39.17c.18,0,.27.15.27.28l-.06.18a.33.33,0,0,1-.23.06l-.49-.05a6.72,6.72,0,0,0-.71,0,7.86,7.86,0,0,0-.83,0l-.42.05-.17-.07-.05-.2c0-.06.1-.15.27-.26A1.64,1.64,0,0,0,88.8,81a2,2,0,0,0,.28-.72,6.82,6.82,0,0,0,.14-1.18l.14-2.77v-.57a4.42,4.42,0,0,0-.12-1.19,1.4,1.4,0,0,0-.39-.66,1.27,1.27,0,0,0-.44-.19c-.18,0-.27-.12-.27-.25l0-.17.17-.06.13,0a7,7,0,0,0,.9.06,3.91,3.91,0,0,0,.64-.06l.13,0,.19.07a2,2,0,0,1,.18.31l2.7,5.8.08.13.08,0,.1,0,.08-.1,3-6a.46.46,0,0,1,.12-.2l.18-.06.24,0a1.61,1.61,0,0,0,.34,0,3.65,3.65,0,0,0,.55,0l.36,0a.3.3,0,0,1,.22.06.29.29,0,0,1,.06.21c0,.1-.08.18-.25.21a1.66,1.66,0,0,0-.46.19.72.72,0,0,0-.3.34,1.94,1.94,0,0,0-.09.66Z"/><path class="cls-1" d="M104.3,81.4l0,.06.26,0h.19a1.69,1.69,0,0,0,1-.27,1.57,1.57,0,0,0,.57-.82l0,0a3,3,0,0,1-.85.66,3.85,3.85,0,0,1-1.13.36m-1.61-6.22v5c0,.49.06.79.19.91a1.38,1.38,0,0,0,.77.16,4.07,4.07,0,0,0,1.2-.19,2.92,2.92,0,0,0,1-.52,2,2,0,0,0,.44-.55c.13-.21.23-.32.31-.32l.13.07.05.17a2.31,2.31,0,0,1-.14.65,2.77,2.77,0,0,1-.33.69,1.47,1.47,0,0,1-.64.52,2.5,2.5,0,0,1-1,.17l-1-.05c-.51,0-.93,0-1.28,0s-.84,0-1.28,0l-.66.05a.34.34,0,0,1-.22-.06l-.07-.19c0-.1.1-.21.29-.31l.29-.17a.83.83,0,0,0,.36-.4,1.62,1.62,0,0,0,.12-.71V75.3a3.36,3.36,0,0,0-.07-.84,1.23,1.23,0,0,0-.27-.47,1.33,1.33,0,0,0-.63-.2q-.42-.06-.42-.27l.08-.19a.29.29,0,0,1,.22-.07l.56.06c.35,0,.7,0,1,0s1,0,1.51-.08l.21,0,.18.07.06.19q0,.15-.27.24a1.14,1.14,0,0,0-.4.23.74.74,0,0,0-.26.37,3,3,0,0,0-.07.82m-1.76-1.48,0,0a.88.88,0,0,1,.44.43,1.81,1.81,0,0,1,.14.78v4.76a3.8,3.8,0,0,1-.11,1.07,1.42,1.42,0,0,1-.36.58l0,0a1,1,0,0,0,.54-.52,3,3,0,0,0,.17-1.22V75a1.77,1.77,0,0,0-.19-.9,1,1,0,0,0-.61-.44"/><path class="cls-1" d="M107.7,73.7a1,1,0,0,1,.41.49,2.09,2.09,0,0,1,.13.77v4.76a3.85,3.85,0,0,1-.11,1.07,1.42,1.42,0,0,1-.36.58.74.74,0,0,0,.56-.45,3.21,3.21,0,0,0,.17-1.23V75a1.77,1.77,0,0,0-.19-.9,1,1,0,0,0-.61-.44m3.45,7.69v0h.11l.32,0a1.7,1.7,0,0,0,1-.27,1.51,1.51,0,0,0,.56-.8l0-.05a2.59,2.59,0,0,1-.8.68,4.1,4.1,0,0,1-1.15.36M111,77.22v.07a1.89,1.89,0,0,1,.31.1.82.82,0,0,1,.25.16h0l0-.72h-.06a1.44,1.44,0,0,1-.23.25,1,1,0,0,1-.28.14m.43-3.57v0a3.06,3.06,0,0,1,.77.24,1.16,1.16,0,0,1,.41.44h.06a.91.91,0,0,0-.2-.59.89.89,0,0,0-.61-.17h-.44m-2,.89v1.91a.54.54,0,0,0,.12.39.56.56,0,0,0,.4.12h.4a2,2,0,0,0,.66-.09.94.94,0,0,0,.41-.33,1.52,1.52,0,0,0,.19-.35c.1-.23.23-.34.36-.34l.14.07.06.18s0,.1,0,.28a3.31,3.31,0,0,0,0,.55q0,.73.06,1.5a1.13,1.13,0,0,0,0,.19l0,.17-.14.06q-.2,0-.24-.33a1.87,1.87,0,0,0-.09-.36.84.84,0,0,0-.4-.49,1.72,1.72,0,0,0-.83-.15H110a.53.53,0,0,0-.4.13,1,1,0,0,0-.11.56v1.9c0,.51.06.82.19.94a1.15,1.15,0,0,0,.79.19,4.17,4.17,0,0,0,1.2-.19,3.06,3.06,0,0,0,1-.52,2.25,2.25,0,0,0,.45-.55c.14-.22.24-.32.32-.32l.12.07,0,.17a2.12,2.12,0,0,1-.14.64,2.4,2.4,0,0,1-.34.7,1.47,1.47,0,0,1-.64.52,2.48,2.48,0,0,1-1,.17l-1-.05c-.51,0-.93,0-1.27,0s-.84,0-1.27,0l-.66.05a.34.34,0,0,1-.22-.06l-.08-.19c0-.11.1-.21.3-.31a2.4,2.4,0,0,0,.27-.16.82.82,0,0,0,.37-.41,2,2,0,0,0,.12-.72V75.3a3.91,3.91,0,0,0-.07-.85,1,1,0,0,0-.26-.41,1.18,1.18,0,0,0-.64-.24c-.28,0-.42-.14-.42-.28l.08-.19a.33.33,0,0,1,.23-.07h.14c.69.06,1.42.09,2.21.09.58,0,1.23,0,1.94,0l1.28,0c.22,0,.35,0,.4.09a.47.47,0,0,1,.09.35V74c0,.3,0,.62,0,.93V75a.31.31,0,0,1,0,.2l-.16,0c-.13,0-.2-.1-.22-.29a1.49,1.49,0,0,0-.09-.42,1.11,1.11,0,0,0-.65-.54,4.77,4.77,0,0,0-1.39-.15,1.48,1.48,0,0,0-.78.15.65.65,0,0,0-.21.55"/><path class="cls-1" d="M118.56,77.76l0,.08.17.2a2.44,2.44,0,0,1,.19.32l.93,1.86a4.76,4.76,0,0,0,.69,1,1.53,1.53,0,0,0,.76.47l0-.07a1.58,1.58,0,0,1-.55-.5,7.06,7.06,0,0,1-.64-1l-1.06-2.08a.7.7,0,0,0-.17-.25l-.21-.06h-.11m.33-4a2.76,2.76,0,0,1,.8.88,2.14,2.14,0,0,1,.27,1.06,2.24,2.24,0,0,1-.11.77,1.43,1.43,0,0,1-.31.55l0,0a1.38,1.38,0,0,0,.51-.59,2,2,0,0,0,.18-.87,1.86,1.86,0,0,0-.36-1.16,1.84,1.84,0,0,0-1-.68m-3.67,0a1.06,1.06,0,0,1,.41.48,2.19,2.19,0,0,1,.13.78v4.76a3.8,3.8,0,0,1-.11,1.07,1.42,1.42,0,0,1-.36.58.76.76,0,0,0,.56-.45,3.28,3.28,0,0,0,.16-1.24V75a1.78,1.78,0,0,0-.18-.9,1,1,0,0,0-.61-.44m4.45,3.81.21.18a3.28,3.28,0,0,1,.21.33l1.23,2.29a2.48,2.48,0,0,0,.45.64.66.66,0,0,0,.46.16h.29l.13,0,0,.13c0,.16-.13.31-.41.45a1.87,1.87,0,0,1-.9.22,1.35,1.35,0,0,1-1-.49,7.25,7.25,0,0,1-1.06-1.73l-.1-.23a7.11,7.11,0,0,0-.81-1.44.9.9,0,0,0-.3-.17,2.69,2.69,0,0,0-.59,0,.81.81,0,0,0-.42.08.46.46,0,0,0-.1.34v1.8a2,2,0,0,0,.13.78.8.8,0,0,0,.42.41,1.07,1.07,0,0,0,.32.12c.22.07.33.16.33.3a.25.25,0,0,1-.07.21.32.32,0,0,1-.22.06l-.53-.05c-.33,0-.64,0-.94,0s-.66,0-1,0l-.64.05a.34.34,0,0,1-.22-.06l-.08-.18c0-.12.11-.23.32-.32l.25-.13a1,1,0,0,0,.37-.44,2,2,0,0,0,.11-.71V75.3a3.3,3.3,0,0,0-.07-.85.88.88,0,0,0-.23-.41,1.12,1.12,0,0,0-.58-.25c-.26,0-.38-.13-.38-.27l.07-.19a.29.29,0,0,1,.22-.07l.26,0a10.77,10.77,0,0,0,1.34.08l1.07,0c.49,0,.89-.06,1.18-.06a3.29,3.29,0,0,1,2.11.6,2,2,0,0,1,.74,1.68,1.88,1.88,0,0,1-.39,1.22,2.55,2.55,0,0,1-1.19.75m-2.64-.8c0,.27.06.43.17.49a2.29,2.29,0,0,0,.83.09,2.09,2.09,0,0,0,1.32-.34,1.39,1.39,0,0,0,.41-1.12,2.06,2.06,0,0,0-.53-1.51,1.92,1.92,0,0,0-1.46-.56.76.76,0,0,0-.58.19,1.31,1.31,0,0,0-.16.79Z"/><path class="cls-1" d="M72.74,71.23l.46-.74-.1-.11-.67.72-.05.08v.13l0,0,.69.66.15-.12Zm.62-1,.75.77,0,.09,0,.12,0,.11-.06.09-.77.77-.09.06h-.12l-.11,0-.1-.06-.76-.78-.05-.09,0-.12,0-.11.06-.1.78-.77.09,0,.13,0,.11,0,.09.06"/><path class="cls-1" d="M84.53,71.23l.45-.74-.09-.11-.68.72,0,.08v.13l0,0,.7.66.15-.12Zm.62-1,.74.77,0,.09,0,.12,0,.11-.06.09-.77.77-.09.06H84.9l-.11,0-.1-.06-.75-.78-.06-.09,0-.12,0-.11L84,71l.78-.77.08,0,.13,0,.11,0,.1.06"/><path class="cls-1" d="M134.45,81.11l0,0a1.06,1.06,0,0,0,.42-.42,1.18,1.18,0,0,0,.14-.58,2.9,2.9,0,0,0,0-.48,4.2,4.2,0,0,0-.12-.48L132.42,73l-.08-.18-.1,0-.13.07-.05.16a.8.8,0,0,0,.11.31l.05.13,2.33,6a3,3,0,0,1,.16.48,2.48,2.48,0,0,1,0,.45,1.19,1.19,0,0,1-.08.44,1,1,0,0,1-.23.34m-5.76-1.39a5.57,5.57,0,0,1-.54,1.12,2,2,0,0,1-.52.53l.05,0a1,1,0,0,0,.8-.41,1.91,1.91,0,0,0,.26-1.12v-.12Zm3.38-6a.75.75,0,0,0-.11-.22l-.1-.07-.12.06-.1.17-1.11,2.78-.07.22,0,.17a.2.2,0,0,0,.13.19,1.9,1.9,0,0,0,.53,0h1.69a.74.74,0,0,0,.34-.06l.13-.15a.65.65,0,0,0,0-.18,1.9,1.9,0,0,0-.09-.29Zm.62-3,3.74,9.4a2.36,2.36,0,0,0,.38.68,1.15,1.15,0,0,0,.5.27l.24.11a.45.45,0,0,1,.25.63s-.11,0-.21.06l-.81-.06c-.44,0-.82,0-1.14,0a18.09,18.09,0,0,0-1.83.09l-.17,0-.16-.09a.37.37,0,0,1-.06-.23c0-.1.18-.24.53-.42a.87.87,0,0,0,.53-.8,1.32,1.32,0,0,0,0-.34,2.42,2.42,0,0,0-.1-.36l-.42-1.06a1.16,1.16,0,0,0-.33-.54,1.33,1.33,0,0,0-.75-.14h-2A1.48,1.48,0,0,0,130,78a1,1,0,0,0-.31.53l-.4,1.2c0,.12-.06.22-.09.3l0,.24a.75.75,0,0,0,.24.57,1.63,1.63,0,0,0,.76.32l.07,0c.34.08.51.19.51.35a.32.32,0,0,1-.08.23.38.38,0,0,1-.24.07l-.7-.06c-.43,0-.82,0-1.19,0a7.89,7.89,0,0,0-.84,0l-.44.06a.33.33,0,0,1-.24-.08.29.29,0,0,1-.08-.22c0-.15.11-.27.32-.36a1.58,1.58,0,0,0,.29-.14,1.52,1.52,0,0,0,.42-.45,8.38,8.38,0,0,0,.49-1l3.7-8.94h0c.06-.14.13-.21.23-.21l.15.08.13.2"/><path class="cls-1" d="M138.73,73.63l0,.05a.82.82,0,0,1,.43.43,1.8,1.8,0,0,1,.13.78v4.76a3.94,3.94,0,0,1-.1,1.07,1.54,1.54,0,0,1-.36.57l0,0a1,1,0,0,0,.54-.5,3.38,3.38,0,0,0,.15-1.23V75a1.74,1.74,0,0,0-.19-.91,1,1,0,0,0-.6-.43m3,4.33,2.11,2.92a4.18,4.18,0,0,0,.47.57.43.43,0,0,0,.27.13l.07,0,0-.06-.1-.15-.13-.15-2.63-3.6-.09-.1-.07,0-.1,0,0,.11,0,.11.16.24m2-4.47v.05a.86.86,0,0,1,.31.2.49.49,0,0,1,.06.27l0,.24a1.48,1.48,0,0,1-.16.3l0,0,.08-.08c.24-.28.36-.47.36-.59a.34.34,0,0,0-.15-.29,1,1,0,0,0-.48-.14m-3.26,1.62v2a1.31,1.31,0,0,0,0,.27l.1.06.11,0,.13-.08,1.39-1.32a14.51,14.51,0,0,0,1.21-1.28,1.69,1.69,0,0,0,.45-.78.24.24,0,0,0-.1-.21.48.48,0,0,0-.27-.12h-.07c-.19,0-.28-.11-.28-.28l.06-.15.18,0a4.6,4.6,0,0,1,.6,0c.29,0,.53.05.72.05a6.22,6.22,0,0,0,.71-.05,4,4,0,0,1,.48,0,.44.44,0,0,1,.23,0l.07.18c0,.12-.1.21-.3.28a1.71,1.71,0,0,0-.38.17,3,3,0,0,0-.66.42,12.77,12.77,0,0,0-1,.84l-1.3,1.24-.2.22-.06.17.05.16a2.38,2.38,0,0,0,.14.23l2.28,3.08a5.06,5.06,0,0,0,.49.59,1.33,1.33,0,0,0,.37.28,1.27,1.27,0,0,0,.42.24c.15,0,.22.11.22.2a.28.28,0,0,1-.07.22.3.3,0,0,1-.22.07,3.38,3.38,0,0,1-.47,0l-.47,0-.37,0a1.55,1.55,0,0,1-.29,0l-.25-.1a1.28,1.28,0,0,1-.27-.29l-2.53-3.53-.09-.11-.07,0-.07,0-.12.1-.39.34-.12.19a1.14,1.14,0,0,0,0,.37v.86a3.4,3.4,0,0,0,.1,1,.7.7,0,0,0,.33.42,1.19,1.19,0,0,0,.45.2c.21.06.31.15.31.29l0,.18a.3.3,0,0,1-.22.06l-.58,0-.9,0-1,0-.64,0a.34.34,0,0,1-.22-.06l-.07-.16c0-.12.11-.23.31-.31a1.69,1.69,0,0,0,.41-.2,1.19,1.19,0,0,0,.26-.48,4.47,4.47,0,0,0,.07-.88V75.23a4.13,4.13,0,0,0-.07-.87,1.3,1.3,0,0,0-.26-.49,1.43,1.43,0,0,0-.63-.16c-.29,0-.43-.12-.43-.27l.09-.18a.32.32,0,0,1,.23-.07l.55,0c.35,0,.7.05,1,.05a13.57,13.57,0,0,0,1.52-.09h.22l.17,0,.06.17c0,.12-.09.2-.28.27a1.44,1.44,0,0,0-.41.19,1,1,0,0,0-.24.39,2.51,2.51,0,0,0-.07.73Z"/><path class="cls-1" d="M151.68,81.26l0,0a.92.92,0,0,0,.35-.32.85.85,0,0,0,.12-.46,2.76,2.76,0,0,0,0-.37,2.74,2.74,0,0,0-.11-.37l-2-4.82-.07-.14-.08,0-.11.06,0,.12a.9.9,0,0,0,.08.24l.06.1,1.93,4.65a2.05,2.05,0,0,1,.13.37,1.55,1.55,0,0,1,.05.35,1,1,0,0,1-.07.35.79.79,0,0,1-.19.26m-4.8-1.07a4.24,4.24,0,0,1-.45.86,1.49,1.49,0,0,1-.43.4l0,0a.86.86,0,0,0,.67-.32,1.46,1.46,0,0,0,.22-.87v-.09Zm2.82-4.62-.09-.17-.09-.06-.1,0-.09.13-.91,2.15-.06.17,0,.13.11.15a1.41,1.41,0,0,0,.44,0h1.41a.78.78,0,0,0,.29,0l.1-.12,0-.14-.08-.22Zm.51-2.36,3.12,7.28a1.56,1.56,0,0,0,.32.52.84.84,0,0,0,.41.21l.2.09c.16.07.25.17.25.3s0,.16,0,.18l-.17,0-.68,0c-.36,0-.67,0-.94,0a15,15,0,0,0-1.52.07H151l-.13-.06-.05-.18c0-.08.15-.19.44-.33a.66.66,0,0,0,.44-.62l0-.26a1.52,1.52,0,0,0-.09-.28l-.34-.82a1,1,0,0,0-.28-.42,1.18,1.18,0,0,0-.62-.1h-1.67a1.31,1.31,0,0,0-.69.11.76.76,0,0,0-.25.41l-.34.93-.07.23,0,.19a.57.57,0,0,0,.2.44,1.55,1.55,0,0,0,.64.25h.05q.42.09.42.27l-.06.18a.34.34,0,0,1-.2,0l-.59,0c-.35,0-.68,0-1,0a5.58,5.58,0,0,0-.7,0l-.36,0a.28.28,0,0,1-.2-.06l-.07-.17q0-.17.27-.27a2,2,0,0,0,.25-.12,1.22,1.22,0,0,0,.34-.34,5,5,0,0,0,.41-.8l3.08-6.92h0c.05-.11.11-.16.19-.16l.12.06.11.15"/><path class="cls-1" d="M155.65,73.7v.06a.8.8,0,0,1,.42.41,2,2,0,0,1,.13.78v4.87a3.38,3.38,0,0,1-.1.9,1.64,1.64,0,0,1-.34.58v0a1,1,0,0,0,.54-.49,3.25,3.25,0,0,0,.15-1.21V75a1.71,1.71,0,0,0-.19-.91.94.94,0,0,0-.61-.42m4.19-.13v.06a3.33,3.33,0,0,1,1.78,1.46,4.84,4.84,0,0,1,.67,2.54,4.67,4.67,0,0,1-.38,1.9,3.28,3.28,0,0,1-1.08,1.35l0,.05a3.4,3.4,0,0,0,1.32-1.37,4.39,4.39,0,0,0,.43-2,4.33,4.33,0,0,0-.76-2.57,3.26,3.26,0,0,0-2-1.38M156,80.14v-5a2.38,2.38,0,0,0-.11-.84.9.9,0,0,0-.41-.41,1.62,1.62,0,0,0-.5-.14c-.22,0-.33-.12-.33-.25l.1-.21a.37.37,0,0,1,.25-.07l.47.06a7.27,7.27,0,0,0,.78,0c.36,0,.82,0,1.38,0s.95-.06,1.16-.06a5.65,5.65,0,0,1,3.6,1,3.51,3.51,0,0,1,1.26,2.9,4.58,4.58,0,0,1-1.4,3.4,4.85,4.85,0,0,1-3.51,1.36c-.16,0-.41,0-.76,0s-.63,0-.83,0a16.14,16.14,0,0,0-1.82.09h-.1l-.19-.07-.07-.14c0-.12.11-.24.36-.35l.2-.1a.8.8,0,0,0,.36-.39,1.8,1.8,0,0,0,.11-.67m1.48-.63a2.28,2.28,0,0,0,.3,1.43,1.47,1.47,0,0,0,1.08.32,3,3,0,0,0,2.36-1,3.87,3.87,0,0,0,.89-2.66,4.07,4.07,0,0,0-1-2.8,3.19,3.19,0,0,0-2.49-1.08,1.61,1.61,0,0,0-1,.2,1.32,1.32,0,0,0-.23.93Z"/><path class="cls-1" d="M165.13,73.63a1,1,0,0,1,.41.48,1.92,1.92,0,0,1,.13.78v4.76a3.85,3.85,0,0,1-.11,1.07,1.47,1.47,0,0,1-.35.57.74.74,0,0,0,.56-.44,3.5,3.5,0,0,0,.16-1.24V75a1.65,1.65,0,0,0-.19-.9,1,1,0,0,0-.61-.44m3.45,7.69v.05H169a1.67,1.67,0,0,0,1-.26,1.45,1.45,0,0,0,.56-.8l0,0a2.45,2.45,0,0,1-.8.67,3.7,3.7,0,0,1-1.15.37m-.13-4.18,0,.08a1.32,1.32,0,0,1,.3.1,1.35,1.35,0,0,1,.26.15h0l0-.72H169a.94.94,0,0,1-.23.25.8.8,0,0,1-.28.13m.43-3.56,0,0a2.34,2.34,0,0,1,.76.24,1.06,1.06,0,0,1,.41.43l.06,0a.88.88,0,0,0-.2-.6.86.86,0,0,0-.6-.16h-.22l-.23,0m-2,.89v1.91a.54.54,0,0,0,.12.39.58.58,0,0,0,.4.12h.4a1.7,1.7,0,0,0,.66-.1.92.92,0,0,0,.41-.32,1.52,1.52,0,0,0,.19-.35c.11-.23.23-.35.36-.35l.15.08,0,.18s0,.1,0,.28a4.73,4.73,0,0,0,0,.54c0,.5,0,1,.07,1.51,0,.11,0,.17,0,.19l0,.17-.14.06q-.19,0-.24-.33a1.7,1.7,0,0,0-.09-.36.89.89,0,0,0-.39-.5,2,2,0,0,0-.84-.14h-.48a.48.48,0,0,0-.4.13,1,1,0,0,0-.11.56V80a1.46,1.46,0,0,0,.19.94,1.21,1.21,0,0,0,.79.18,3.81,3.81,0,0,0,1.2-.19,2.79,2.79,0,0,0,1-.52,2.22,2.22,0,0,0,.46-.54c.13-.22.23-.33.31-.33l.12.07,0,.18a2.19,2.19,0,0,1-.14.64,2.77,2.77,0,0,1-.33.69,1.52,1.52,0,0,1-.65.53,2.47,2.47,0,0,1-1,.16c-.17,0-.51,0-1,0s-.93,0-1.27,0-.84,0-1.27,0l-.66,0a.36.36,0,0,1-.22-.06l-.07-.18c0-.11.1-.22.29-.32a1.53,1.53,0,0,0,.27-.15.82.82,0,0,0,.37-.41,1.8,1.8,0,0,0,.12-.72V75.23a3.84,3.84,0,0,0-.07-.85.93.93,0,0,0-.26-.41,1.23,1.23,0,0,0-.64-.25c-.28,0-.42-.13-.42-.28l.08-.18a.36.36,0,0,1,.24-.07h.14c.68.06,1.41.09,2.21.09.57,0,1.22,0,1.93-.05l1.28,0c.22,0,.36,0,.41.08a.55.55,0,0,1,.08.36v.25c0,.31,0,.62,0,.93v.11a.31.31,0,0,1,0,.2l-.15,0c-.14,0-.21-.1-.23-.29a1.49,1.49,0,0,0-.09-.42,1,1,0,0,0-.64-.54,4.89,4.89,0,0,0-1.4-.15,1.42,1.42,0,0,0-.77.15.62.62,0,0,0-.22.55"/><path class="cls-1" d="M180.21,74l-.05,0a2,2,0,0,0-.25.67,5,5,0,0,0-.08.94v.22l.18,4V80c0,.07,0,.18,0,.32a2.23,2.23,0,0,1-.08.66.77.77,0,0,1-.22.38v.06a1.07,1.07,0,0,0,.43-.44,1.49,1.49,0,0,0,.13-.69c0-.08,0-.2,0-.34l-.13-3.54c0-.08,0-.19,0-.31v-.7c0-.27,0-.52,0-.73s0-.42.07-.62m-7.68-.43v.08a3,3,0,0,1,1,1.35l.09.2,2.56,5.64.08.14.08,0,.08,0,0-.08,0-.14a2.79,2.79,0,0,0-.14-.33l-2.22-5,0,0c-.49-1.1-1-1.71-1.5-1.85m.45,6.34h-.07a2.74,2.74,0,0,1-.19.91,1,1,0,0,1-.41.5v.07a.89.89,0,0,0,.56-.25.82.82,0,0,0,.17-.55,2.54,2.54,0,0,0,0-.26c0-.1,0-.24-.05-.42m8.09-5,.13,4.9a2.56,2.56,0,0,0,.11.85,1,1,0,0,0,.34.44,1,1,0,0,0,.46.19c.16,0,.25.1.25.21a.29.29,0,0,1-.07.23.4.4,0,0,1-.25.06l-.52,0c-.32,0-.61,0-.89,0s-.6,0-.92,0l-.51,0a.41.41,0,0,1-.21,0,.26.26,0,0,1-.08-.2c0-.1.09-.2.26-.29a1.53,1.53,0,0,0,.23-.15.68.68,0,0,0,.3-.31,1.15,1.15,0,0,0,.09-.52v-.27l-.17-3.8,0-.2-.06-.09-.11.09a1.36,1.36,0,0,0-.14.23l-2.57,5.21a.57.57,0,0,1-.14.21l-.15.05c-.1,0-.18-.08-.24-.22l0-.06-2.38-5.24a.56.56,0,0,0-.11-.18l-.08,0-.06.07a.73.73,0,0,0,0,.25l-.11,3v.52a2.25,2.25,0,0,0,.13.9.67.67,0,0,0,.44.38,1,1,0,0,0,.4.18c.18,0,.27.14.27.28l-.07.18s-.11,0-.22,0a4,4,0,0,1-.5,0c-.26,0-.5,0-.71,0s-.54,0-.82,0l-.43,0-.16-.07-.06-.19c0-.06.1-.15.28-.27a1.42,1.42,0,0,0,.42-.38,2,2,0,0,0,.28-.71,6.84,6.84,0,0,0,.15-1.18l.13-2.77v-.22a3.44,3.44,0,0,0,0-.36,4.84,4.84,0,0,0-.12-1.18,1.3,1.3,0,0,0-.4-.66,1.19,1.19,0,0,0-.44-.19c-.18,0-.27-.13-.27-.25l0-.17.17-.06h.13a5.63,5.63,0,0,0,.9.07,3.14,3.14,0,0,0,.65-.07h.12l.19.07a.84.84,0,0,1,.18.31l2.7,5.8.08.13.09,0,.09,0,.08-.11,3-5.94a.41.41,0,0,1,.13-.2l.17-.06.25,0a1.47,1.47,0,0,0,.33,0,3.56,3.56,0,0,0,.55,0l.36,0c.11,0,.19,0,.23.06a.32.32,0,0,1,0,.2c0,.11-.08.18-.24.22a1.6,1.6,0,0,0-.47.19.62.62,0,0,0-.29.34,1.72,1.72,0,0,0-.09.66Z"/><path class="cls-1" d="M186.12,75.11V80a1.85,1.85,0,0,0,.15.82.69.69,0,0,0,.47.36,1.76,1.76,0,0,0,.4.12c.29.07.43.17.43.31l-.08.2a.48.48,0,0,1-.26.06c-.06,0-.28,0-.68,0s-.76,0-1.1,0-.57,0-.91,0-.56,0-.64,0a.34.34,0,0,1-.22-.06l-.08-.18c0-.13.13-.24.37-.34l.25-.11a.75.75,0,0,0,.32-.41,2.25,2.25,0,0,0,.12-.74V75.23a3.54,3.54,0,0,0-.08-.93.72.72,0,0,0-.26-.37,1.36,1.36,0,0,0-.63-.21c-.29,0-.43-.13-.43-.27l.08-.19a.31.31,0,0,1,.22-.07l.18,0a7.27,7.27,0,0,0,1,.06c.73,0,1.4,0,2-.07h.12l.19.06.07.16c0,.11-.11.21-.31.28a1.13,1.13,0,0,0-.43.24.8.8,0,0,0-.21.39,3.81,3.81,0,0,0-.06.79m-1.78-1.48,0,0a.88.88,0,0,1,.43.44,1.8,1.8,0,0,1,.13.78v4.76a3.94,3.94,0,0,1-.1,1.07,1.32,1.32,0,0,1-.36.57l0,0a1,1,0,0,0,.55-.5,3.38,3.38,0,0,0,.15-1.23V75a1.85,1.85,0,0,0-.18-.91,1,1,0,0,0-.62-.43"/><path class="cls-1" d="M189.13,74.08l0,0a4.22,4.22,0,0,0-.3.67,2.58,2.58,0,0,0-.09.62,1.9,1.9,0,0,0,.45,1.3,4.67,4.67,0,0,0,1.63,1l.11,0c1.54.66,2.3,1.35,2.3,2.08V80l0,.22.07,0a3,3,0,0,0,.08-.32c0-.1,0-.2,0-.29a1.51,1.51,0,0,0-.39-1,3.56,3.56,0,0,0-1.26-.83l-.45-.2c-1.57-.68-2.35-1.49-2.35-2.42a2.24,2.24,0,0,1,.06-.52,3.07,3.07,0,0,1,.2-.52m2.67-.55v0a2.59,2.59,0,0,1,.71.5,3.43,3.43,0,0,1,.58.78h.06a1.48,1.48,0,0,0-.37-.92,1.91,1.91,0,0,0-1-.4m-3.31,5.66.38,1.72a.41.41,0,0,0,.11.22l.19.06.05,0,0,0V81l-.62-1.89,0-.07-.06-.07h-.05v.13l0,0m.25,1.9-.39-1.76,0-.14,0-.07a.33.33,0,0,1,.06-.23.27.27,0,0,1,.2-.06c.09,0,.17.13.27.4a5,5,0,0,0,.32.74A3.51,3.51,0,0,0,190.1,81a1.94,1.94,0,0,0,1.12.38,1.65,1.65,0,0,0,1.2-.45,1.52,1.52,0,0,0,.47-1.17c0-.61-.65-1.2-1.95-1.74l-.05,0a5.45,5.45,0,0,1-2-1.19,2.52,2.52,0,0,1,.27-3.1,2.34,2.34,0,0,1,1.73-.69,3,3,0,0,1,1.1.23,2.77,2.77,0,0,0,.73.23.68.68,0,0,0,.31-.08,1.1,1.1,0,0,1,.21-.09l.16.07s.05.11.05.21a1.88,1.88,0,0,1,0,.19V74a6.76,6.76,0,0,0,.08.83,5.64,5.64,0,0,1,.09.79l-.05.16-.14.06c-.12,0-.22-.14-.3-.4a3.29,3.29,0,0,0-.31-.76,2.39,2.39,0,0,0-.86-.81,2.12,2.12,0,0,0-1.11-.31,1.39,1.39,0,0,0-1,.35,1.08,1.08,0,0,0-.38.85,1.16,1.16,0,0,0,.36.86,4.31,4.31,0,0,0,1.34.71l.34.13a5.16,5.16,0,0,1,1.58.83,2.21,2.21,0,0,1,.54.83,2.78,2.78,0,0,1,.19,1.06A2.57,2.57,0,0,1,191.07,82a3.73,3.73,0,0,1-1-.2,5,5,0,0,0-.89-.23.41.41,0,0,1-.38-.33l0-.11"/><path class="cls-1" d="M197.59,75.11V80a1.85,1.85,0,0,0,.15.82.71.71,0,0,0,.48.36,1.61,1.61,0,0,0,.4.12c.28.07.42.17.42.31l-.08.2a.45.45,0,0,1-.26.06s-.28,0-.68,0-.76,0-1.1,0-.56,0-.91,0-.56,0-.64,0a.36.36,0,0,1-.22-.06l-.08-.18c0-.13.13-.24.38-.34a1.42,1.42,0,0,0,.24-.11.71.71,0,0,0,.32-.41,2,2,0,0,0,.12-.74V75.23a3.69,3.69,0,0,0-.07-.93.81.81,0,0,0-.27-.37,1.36,1.36,0,0,0-.63-.21c-.28,0-.43-.13-.43-.27l.08-.19a.33.33,0,0,1,.23-.07l.18,0a7.13,7.13,0,0,0,1,.06c.74,0,1.41,0,2-.07h.11l.2.06.06.16c0,.11-.1.21-.3.28a1.06,1.06,0,0,0-.43.24.66.66,0,0,0-.21.39,3.12,3.12,0,0,0-.07.79m-1.77-1.48,0,0a.9.9,0,0,1,.44.44,1.8,1.8,0,0,1,.13.78v4.76a3.5,3.5,0,0,1-.11,1.07,1.4,1.4,0,0,1-.35.57l0,0a1,1,0,0,0,.54-.5,3.12,3.12,0,0,0,.16-1.23V75a1.84,1.84,0,0,0-.19-.91,1,1,0,0,0-.61-.43"/><path class="cls-1" d="M185,71.15l.45-.73-.09-.12-.68.72-.05.08v.13l0,0,.7.66.15-.11Zm.62-1,.74.77.05.08,0,.12,0,.11-.06.1-.77.77-.09.05-.12,0-.11,0-.1,0-.75-.79-.06-.08,0-.12,0-.12.06-.09.78-.77.08,0,.13,0,.11,0,.1.07"/><path class="cls-1" d="M196.5,71.15l.46-.73-.1-.12-.68.72,0,.08v.13l0,0,.69.66.15-.11Zm.62-1,.74.77.06.08,0,.12,0,.11,0,.1-.78.77-.08.05-.12,0-.12,0-.09,0-.76-.79,0-.08,0-.12,0-.12.06-.09.79-.77.08,0,.12,0,.11,0,.1.07"/><rect class="cls-2" x="68.89" width="61.27" height="20.39"/><rect class="cls-1" x="68.9" y="20.38" width="61.26" height="39.93"/><rect class="cls-3" x="102.62" y="42.2" width="7.56" height="4.54"/><path class="cls-3" d="M100.69,47.12h10.38V41.18H100.69Zm-.56-6.49h11.49v7.06H100.13Z"/><path class="cls-3" d="M95.7,49h18.24V38H95.7Zm-.56-11.54h19.35V49.56H95.14Z"/><path class="cls-3" d="M90.71,50.89h26.1v-16H90.71Zm-.56-16.56h27.22V51.45H90.15Z"/><path class="cls-3" d="M85.72,52.77h34v-21h-34Zm-.56-21.6h35.08V53.33H85.16Z"/><path class="cls-3" d="M80.73,54.66h41.82V28.58H80.73ZM80.18,28h42.93v27.2H80.18Z"/><path class="cls-3" d="M75.74,56.54h49.68V25.43H75.74Zm-.56-31.67H126V57.1H75.18Z"/><path class="cls-3" d="M128.3,22.28H70.75V58.42H128.3Zm.56,36.7H70.2V21.72h58.66Z"/><rect class="cls-2" x="104.96" y="43.63" width="4.29" height="2.31"/><polygon class="cls-2" points="105.26 43.93 105.26 43.83 109.05 43.83 109.05 45.74 105.16 45.74 105.16 43.83 105.26 43.83 105.26 43.93 105.36 43.93 105.36 45.53 108.84 45.53 108.84 44.03 105.26 44.03 105.26 43.93 105.36 43.93 105.26 43.93"/><path class="cls-3" d="M74.78,4.85h4.7c.67,0,1.39,0,2.16-.08L83,4.69a1,1,0,0,1,.59.11.66.66,0,0,1,.16.45l.16,1.94v.16a.81.81,0,0,1,0,.36.32.32,0,0,1-.23.06q-.34,0-.48-.45a3.94,3.94,0,0,0-.18-.5,1.4,1.4,0,0,0-.78-.77,5.43,5.43,0,0,0-1.79-.21H80A2.65,2.65,0,0,0,78.75,6c-.15.1-.22.35-.22.74v8.43a2.66,2.66,0,0,0,.25,1.25,1.59,1.59,0,0,0,.81.66,3.87,3.87,0,0,0,.6.14c.46.07.69.22.69.44a.36.36,0,0,1-.13.31.51.51,0,0,1-.37.1L79.29,18c-.63-.05-1.21-.08-1.74-.08s-1.13,0-1.85.08-1.16.08-1.33.08A.73.73,0,0,1,74,18a.31.31,0,0,1-.14-.27c0-.21.19-.35.59-.45a4.41,4.41,0,0,0,.58-.17,1.52,1.52,0,0,0,.82-.66,2.28,2.28,0,0,0,.27-1.19V6.69q0-.57-.21-.72a2.33,2.33,0,0,0-1.09-.15,6.63,6.63,0,0,0-2.08.23,1.51,1.51,0,0,0-.88.78,4.7,4.7,0,0,0-.34.93c-.12.42-.3.64-.55.64a.28.28,0,0,1-.24-.11A.52.52,0,0,1,70.6,8s0-.12.05-.28c.13-.74.23-1.49.29-2.24a1.27,1.27,0,0,1,.14-.63.46.46,0,0,1,.38-.14l1.31.08c.75.05,1.42.08,2,.08M71.27,6.92h.08A2,2,0,0,1,72,6a3.7,3.7,0,0,1,1.21-.56V5.42h-.11l-.36,0a1.52,1.52,0,0,0-1.09.35,1.43,1.43,0,0,0-.35,1Zm4.92-1.4-.06.06a.91.91,0,0,1,.28.31.62.62,0,0,1,.1.35v9a3.81,3.81,0,0,1-.17,1.22.91.91,0,0,1-.43.59l0,.07a1,1,0,0,0,.77-.58A3.76,3.76,0,0,0,77,15V7.42A3.9,3.9,0,0,0,76.78,6a.89.89,0,0,0-.59-.49m5-.07v.11a2.67,2.67,0,0,1,1.18.26,2.42,2.42,0,0,1,.86.81h.06A1.33,1.33,0,0,0,83,5.7a1.28,1.28,0,0,0-1-.29h-.35l-.46,0"/><path class="cls-3" d="M89.67,8.69V12a14.25,14.25,0,0,0,.12,2.2,3.51,3.51,0,0,0,.42,1.18,3.33,3.33,0,0,0,1.29,1.29,3.75,3.75,0,0,0,1.85.44,4.57,4.57,0,0,0,1.77-.32,3.44,3.44,0,0,0,1.34-1,3.63,3.63,0,0,0,.8-1.62,12.53,12.53,0,0,0,.24-2.83V8.09a5.48,5.48,0,0,0-.17-1.66,1.27,1.27,0,0,0-.58-.75,4.2,4.2,0,0,0-.94-.22c-.45-.06-.67-.2-.67-.43a.26.26,0,0,1,.11-.25.64.64,0,0,1,.38-.09l.79.09c.45,0,.86.07,1.23.07s.73,0,1.13-.07.94-.09,1-.09-.06,0,0,.07.41.13.41.23-.13.31-.4.4a1.86,1.86,0,0,0-.57.29,1,1,0,0,0-.34.7A26.48,26.48,0,0,0,98.81,9v2.41c0,2.27-.42,4-1.48,5.1a5.94,5.94,0,0,1-4.73,1.68,5,5,0,0,1-4-1.46c-.81-1-1.23-2.61-1.23-4.86V7.3a3.19,3.19,0,0,0-.14-1.11.86.86,0,0,0-.51-.51,4.4,4.4,0,0,0-.79-.21c-.4-.06-.59-.21-.59-.42a.3.3,0,0,1,.12-.27.64.64,0,0,1,.38-.09l.86.09c.54,0,1,.07,1.55.07s1,0,1.51-.07l1-.09a.73.73,0,0,1,.41.09.24.24,0,0,1,.12.23c0,.17-.14.3-.44.39a2.4,2.4,0,0,0-.65.28,1.12,1.12,0,0,0-.4.76,15.48,15.48,0,0,0-.1,2.25M87.21,5.5l0,.06a1.13,1.13,0,0,1,.43.66,5.5,5.5,0,0,1,.14,1.47v3.47c0,2.51.25,4.16.77,5a4.25,4.25,0,0,0,2.84,1.63v-.06A4.7,4.7,0,0,1,88.89,16a9.09,9.09,0,0,1-.68-4.26V8.41c0-.22,0-.46,0-.7V7.6A3.38,3.38,0,0,0,88,6.17a1.41,1.41,0,0,0-.76-.67m9.35-.31v.07a1.65,1.65,0,0,1,.92.62A2.17,2.17,0,0,1,97.82,7h.09s0-.14,0-.24c0-.32,0-.54,0-.64a.8.8,0,0,0-.33-.72,1.8,1.8,0,0,0-1.06-.24"/><path class="cls-3" d="M108.08,17.23a2.73,2.73,0,0,1-1.71-.39,2.18,2.18,0,0,1-.45-1.62V12.69c0-.62.09-1,.27-1.15a2.3,2.3,0,0,1,1.22-.21,4.37,4.37,0,0,1,2.81.81,2.73,2.73,0,0,1,1,2.25,2.68,2.68,0,0,1-.85,2.07,3.25,3.25,0,0,1-2.3.77m-2.16-10a2.25,2.25,0,0,1,.29-1.39,1.34,1.34,0,0,1,1.05-.34,3.24,3.24,0,0,1,2.29.82,2.82,2.82,0,0,1,.89,2.16,2.09,2.09,0,0,1-.53,1.61,2.62,2.62,0,0,1-1.75.47,5.37,5.37,0,0,1-1.88-.19q-.36-.18-.36-.81Zm3-1.9a3,3,0,0,1,1.7,1,2.71,2.71,0,0,1,.63,1.78,2.52,2.52,0,0,1-.2,1.05,2.27,2.27,0,0,1-.61.84l-.09-.06a1.93,1.93,0,0,0,.36-.63,2.24,2.24,0,0,0,.11-.73,3.57,3.57,0,0,0-.5-1.9,3.22,3.22,0,0,0-1.46-1.23Zm-4.62,9.31a4.73,4.73,0,0,1-.26,1.9,1.21,1.21,0,0,1-.91.69,2.09,2.09,0,0,0,.58-.89,5.49,5.49,0,0,0,.17-1.65V7.31a2.92,2.92,0,0,0-.21-1.19,1.68,1.68,0,0,0-.65-.75,1.61,1.61,0,0,1,1,.67,2.65,2.65,0,0,1,.3,1.4Zm8.47-3a3.22,3.22,0,0,0-2-1l-1.08.73a3.39,3.39,0,0,1,1.8,1,2.54,2.54,0,0,1,.64,1.76,3.12,3.12,0,0,1-.55,1.81,3.35,3.35,0,0,1-1.52,1.22l-.06-.09A3.08,3.08,0,0,0,111.26,16a3.24,3.24,0,0,0,.4-1.64,3,3,0,0,0-.51-1.71,2.84,2.84,0,0,0-1.38-1.1v-.1l1-.46c.13,0-.08-.29,0-.27a6.31,6.31,0,0,0,1.33-1.07,2.49,2.49,0,0,0,.56-1.66,2.76,2.76,0,0,0-1.22-2.36,5.45,5.45,0,0,0-3.3-.89c-.46,0-1.14,0-2,.07s-1.53.07-2,.07c-.68,0-1.38,0-2.12-.11l-.32,0a.58.58,0,0,0-.37.11.34.34,0,0,0-.14.29c0,.22.23.36.69.43a2,2,0,0,1,1,.38,1.44,1.44,0,0,1,.41.63,4.84,4.84,0,0,1,.12,1.31v7.4a2.64,2.64,0,0,1-.2,1.1,1.39,1.39,0,0,1-.6.67,1.82,1.82,0,0,1-.4.2c-.34.14-.5.31-.5.49A.34.34,0,0,0,102,18a.64.64,0,0,0,.36.09l1-.07c.57-.05,1.08-.07,1.54-.07l1.3.07c.78,0,1.51.07,2.19.07a9.14,9.14,0,0,0,2.42-.25,4,4,0,0,0,2.6-2.16,4,4,0,0,0,.36-1.68,3.27,3.27,0,0,0-.9-2.35"/><path class="cls-3" d="M124.65,16.69a1.43,1.43,0,0,1-.57.51l0,0a1.06,1.06,0,0,0,.31-.4,1.33,1.33,0,0,0,.11-.54,2.16,2.16,0,0,0-.07-.54,2.84,2.84,0,0,0-.21-.57L121,7.92,121,7.77a1,1,0,0,1-.15-.38l.07-.19.17-.08.14.06a.45.45,0,0,1,.11.21l3.3,7.46a3.52,3.52,0,0,1,.17.57,3.25,3.25,0,0,1,.06.57,1.33,1.33,0,0,1-.18.7m-2.4-4.38a1.34,1.34,0,0,1-.46.06H119.5a3.39,3.39,0,0,1-.71,0,.23.23,0,0,1-.17-.24l0-.2.1-.27,1.49-3.32.14-.2.16-.07.15.09a.78.78,0,0,1,.14.26l1.41,3.19c.05.12.09.24.13.35a1.12,1.12,0,0,1,0,.21c0,.08-.06.14-.17.19m-5.92,3.37A2.15,2.15,0,0,1,116,17a1.47,1.47,0,0,1-1.1.5l0-.06a2.4,2.4,0,0,0,.69-.62,7,7,0,0,0,.73-1.34l.07,0Zm11.9,1.56-.33-.13a1.56,1.56,0,0,1-.67-.33,2.7,2.7,0,0,1-.51-.81L121.66,4.73a.74.74,0,0,0-.17-.25l-.2-.09c-.14,0-.24.09-.31.25h0l-5,10.7a8.64,8.64,0,0,1-.67,1.22,2,2,0,0,1-.56.54,2.8,2.8,0,0,1-.4.17c-.29.11-.43.25-.43.42a.31.31,0,0,0,.1.27.5.5,0,0,0,.33.09L115,18a8.68,8.68,0,0,1,1.13-.07c.5,0,1,0,1.61.07l.94.06A.58.58,0,0,0,119,18a.34.34,0,0,0,.1-.28c0-.18-.23-.31-.69-.41l-.08,0a2.58,2.58,0,0,1-1-.38.85.85,0,0,1-.33-.69,1.57,1.57,0,0,1,0-.28,3.79,3.79,0,0,1,.12-.36l.54-1.44a1.2,1.2,0,0,1,.42-.63,2.18,2.18,0,0,1,1.11-.18h2.7a2,2,0,0,1,1,.16,1.48,1.48,0,0,1,.45.65l.56,1.27a2.39,2.39,0,0,1,.14.43,1.83,1.83,0,0,1,0,.4,1,1,0,0,1-.72,1c-.47.22-.7.38-.7.5a.44.44,0,0,0,.08.28l.21.1.23,0c.8-.07,1.62-.11,2.46-.11.45,0,1,0,1.55.07l1.09.06a.42.42,0,0,0,.29-.07.44.44,0,0,0,.07-.29c0-.19-.14-.34-.41-.46"/><path class="cls-3" d="M91.74,1.1,92.8,2.19l.07.13,0,.16,0,.16-.08.14L91.69,3.87l-.13.07-.17,0-.16,0-.13-.08L90,2.74,90,2.62l0-.17,0-.16L90,2.15l1.11-1.09L91.27,1l.17,0,.16,0Zm-.88,1.43.65-1-.13-.16-1,1-.06.11v.19l0,0,1,.94.21-.16Z"/><path class="cls-3" d="M96.09,1.1l1.06,1.09.07.13,0,.16,0,.16-.08.14L96,3.87l-.13.07-.17,0-.16,0-.13-.08L94.37,2.74l-.07-.12,0-.17,0-.16.08-.14L95.5,1.06,95.62,1l.18,0L96,1Zm-.88,1.43.65-1-.13-.16-1,1-.08.11v.19l0,0,1,.94.21-.16Z"/><path class="cls-4" d="M78.59,90.63h0a3.75,3.75,0,0,1,1.76.5.77.77,0,0,0,.25.1c.06,0,.11,0,.16-.15s.1-.15.15-.15.17.12.17.35v.09c0,.19,0,.52.07,1l.06.59q0,.18-.12.18t-.24-.27a6,6,0,0,0-.32-.6,2.94,2.94,0,0,0-.9-.89A2.25,2.25,0,0,0,78.45,91a1.63,1.63,0,0,0-1.46.9,3.5,3.5,0,0,0-.46,1.81A4.21,4.21,0,0,0,77.11,96,2,2,0,0,0,78.89,97a2.47,2.47,0,0,0,1.74-.76l.26-.31c.13-.16.22-.23.28-.23s.12.05.12.15-.2.49-.6.9a3.11,3.11,0,0,1-2.29.92,2.74,2.74,0,0,1-2.17-.93,3.49,3.49,0,0,1-.8-2.38,4.14,4.14,0,0,1,.85-2.62,2.82,2.82,0,0,1,2.31-1.15m1.3.67h0l0,0a2.91,2.91,0,0,1,1,1.15l0,0a1.33,1.33,0,0,0-.29-.78,2,2,0,0,0-.71-.39M78,97.58v0a3,3,0,0,1-1.62-1.24,3.76,3.76,0,0,1-.54-2.06A4,4,0,0,1,77,91.32l0,0a3.73,3.73,0,0,0-1.43,3.08,3.59,3.59,0,0,0,.6,2.12A2.71,2.71,0,0,0,78,97.58"/><path class="cls-4" d="M97.56,91.77h0v1.52c0,.27.13.4.38.4h.3a.89.89,0,0,0,.79-.33,2.37,2.37,0,0,0,.14-.28c.08-.18.17-.28.27-.28s.14.07.14.21l0,.22c0,.14,0,.29,0,.43s0,.27,0,.45,0,.46,0,.75V95l0,.14-.11,0q-.14,0-.18-.27c0-.06,0-.15-.06-.28a.64.64,0,0,0-.36-.43,1.33,1.33,0,0,0-.55-.08h-.35a.35.35,0,0,0-.33.14,1.17,1.17,0,0,0,0,.4v1.51a1.38,1.38,0,0,0,.11.71c.09.13.29.19.61.19a2.28,2.28,0,0,0,1.6-.56,3.41,3.41,0,0,0,.32-.41c.14-.19.22-.28.25-.28s.13.06.13.19a2,2,0,0,1-.35,1.06,1.16,1.16,0,0,1-.79.52,2.41,2.41,0,0,1-.4,0,3.07,3.07,0,0,1-.38,0H97.9l-.55,0c-.3,0-.61,0-.94,0l-.49,0c-.14,0-.22,0-.22-.19s.08-.17.22-.25l.2-.13a1,1,0,0,0,.36-.89V92.37a1.4,1.4,0,0,0-.25-1,1.11,1.11,0,0,0-.48-.2c-.2,0-.3-.12-.3-.22l.07-.15.17,0h.1c.53,0,1.08.07,1.64.07l.67,0,.76,0,1,0a.4.4,0,0,1,.3.06.48.48,0,0,1,.06.29v.57c0,.17,0,.29,0,.37v.09c0,.13-.05.19-.15.19s-.15-.07-.17-.23a.88.88,0,0,0-.06-.33c-.17-.37-.67-.55-1.51-.55a1.1,1.1,0,0,0-.52.08.52.52,0,0,0-.21.48M99,91.06h0v0a1.65,1.65,0,0,1,.57.19,1,1,0,0,1,.3.34l0,0a.66.66,0,0,0-.14-.47.61.61,0,0,0-.45-.14H99Zm-.32,2.84h0v0L99,94l.18.13h0l0-.58h0a.89.89,0,0,1-.38.31m.09,3.32h0v0h.09l.23,0a1.12,1.12,0,0,0,.74-.22,1.26,1.26,0,0,0,.41-.63l0,0a2.26,2.26,0,0,1-1.45.83M96.26,91.1a.94.94,0,0,1,.37.66c0,.1,0,.22,0,.34v3.79a3,3,0,0,1-.05.69,1.19,1.19,0,0,1-.29.62.66.66,0,0,0,.47-.54,3.86,3.86,0,0,0,.06-.8V92.17c0-.58-.19-.94-.58-1.07"/><path class="cls-4" d="M113.86,91.77h0l-1.31,2.58-.08.21a1.47,1.47,0,0,0,0,.25V96a4,4,0,0,0,0,.6.83.83,0,0,0,.26.51l.46.11c.21,0,.31.13.31.24s-.07.21-.22.21a1.33,1.33,0,0,1-.26,0l-.24,0h-.31l-.45,0h-.4l-.46,0-.6,0-.2,0-.06-.14c0-.09.1-.16.28-.23l.39-.14a.68.68,0,0,0,.33-.43,3.31,3.31,0,0,0,0-.58V95a1.14,1.14,0,0,0-.11-.44l0,0-1.31-2.6a1.66,1.66,0,0,0-.57-.71,1.07,1.07,0,0,0-.21-.05c-.17,0-.26-.11-.26-.22l.07-.12.17,0h.13c.45,0,.79,0,1,0s.58,0,.89,0h.14c.15,0,.22,0,.22.15s-.09.14-.26.22a.38.38,0,0,0-.25.32,1,1,0,0,0,.13.4l1,2.07.1.09.05,0,.07-.09.88-1.75a1.21,1.21,0,0,0,.16-.45.46.46,0,0,0-.41-.5l-.24-.06c-.15,0-.23-.11-.23-.2s.07-.17.21-.17h.15c.33,0,.6,0,.8,0h.22l.23,0,.37,0a.16.16,0,0,1,.18.15.25.25,0,0,1-.15.21l-.13.07c-.17,0-.36.22-.54.59m-4.19-.62h0a2.15,2.15,0,0,1,.38.47l1.31,2.67a3.16,3.16,0,0,1,.24,1.36v.42a1.33,1.33,0,0,1-.31,1l0,0a.72.72,0,0,0,.46-.51,3.13,3.13,0,0,0,.06-.76v-.23a3.29,3.29,0,0,0-.33-1.57l-.07-.14-1.1-2.24a1.11,1.11,0,0,0-.64-.56m3.59-.09,0,0a.49.49,0,0,1,.34.47l0,.18-.06.22h0a.79.79,0,0,0,.23-.53q0-.39-.51-.39"/><path class="cls-4" d="M131.25,91.1h0v1c0,.13-.05.19-.14.19s-.15-.07-.17-.23a.72.72,0,0,0-.07-.33c-.16-.37-.67-.55-1.51-.55a1.07,1.07,0,0,0-.51.08.52.52,0,0,0-.22.48v1.52a.35.35,0,0,0,.39.4h.29a.91.91,0,0,0,.8-.33,2.37,2.37,0,0,0,.14-.28c.07-.18.16-.28.26-.28s.15.07.15.21v.07a3.66,3.66,0,0,0,0,.52c0,.19,0,.37,0,.52l0,.87q0,.21-.15.21c-.09,0-.15-.09-.17-.26a2,2,0,0,0-.06-.29.69.69,0,0,0-.36-.43,1.35,1.35,0,0,0-.56-.08H129a.34.34,0,0,0-.32.14.92.92,0,0,0-.06.4v1.47c0,.51.16.82.48.94a1.16,1.16,0,0,0,.3.1q.3.07.3.24c0,.14-.07.21-.23.21l-.5,0h-.3l-.44,0c-.2,0-.46,0-.77,0l-.47,0c-.15,0-.22,0-.22-.19s.08-.18.23-.25l.19-.11a1,1,0,0,0,.36-.91V92.37a1.4,1.4,0,0,0-.25-1,1.24,1.24,0,0,0-.48-.2c-.2,0-.3-.12-.3-.22l.07-.15.17,0h.11l1.06,0,.72,0,.72,0,1.6,0c.18,0,.27.1.27.34m-1.14,0h0v0a1.57,1.57,0,0,1,.57.19.83.83,0,0,1,.3.34l.05,0a.62.62,0,0,0-.15-.47.58.58,0,0,0-.45-.14h-.32Zm-.32,2.84h0v0L130,94l.19.13h0l0-.58h0a1,1,0,0,1-.38.31m-2.46-2.8a.91.91,0,0,1,.37.66,1.79,1.79,0,0,1,0,.34v3.79a3.74,3.74,0,0,1,0,.69,1.28,1.28,0,0,1-.29.62.68.68,0,0,0,.47-.54,3.86,3.86,0,0,0,.06-.8V92.17c0-.58-.2-.94-.59-1.07"/><path class="cls-4" d="M144.83,90.63h0a3.71,3.71,0,0,1,1.75.5.87.87,0,0,0,.25.1c.06,0,.12,0,.17-.15s.09-.15.14-.15.17.12.17.35v.09c0,.19,0,.52.07,1l.07.59c0,.12,0,.18-.13.18s-.16-.09-.24-.27a6,6,0,0,0-.32-.6,2.83,2.83,0,0,0-.9-.89,2.25,2.25,0,0,0-1.18-.35,1.62,1.62,0,0,0-1.45.9,3.41,3.41,0,0,0-.46,1.81,4.12,4.12,0,0,0,.58,2.21A2,2,0,0,0,145.13,97a2.44,2.44,0,0,0,1.73-.76l.26-.31c.13-.16.23-.23.28-.23s.12.05.12.15-.2.49-.6.9a3.08,3.08,0,0,1-2.28.92,2.76,2.76,0,0,1-2.18-.93,3.49,3.49,0,0,1-.8-2.38,4.09,4.09,0,0,1,.86-2.62,2.8,2.8,0,0,1,2.31-1.15m1.29.67h0l0,0a3,3,0,0,1,1,1.15l0,0a1.33,1.33,0,0,0-.29-.78,1.9,1.9,0,0,0-.71-.39m-1.94,6.28v0a3,3,0,0,1-1.62-1.24,3.76,3.76,0,0,1-.54-2.06,4.12,4.12,0,0,1,1.24-2.92v0a3.71,3.71,0,0,0-1.44,3.08,3.59,3.59,0,0,0,.6,2.12,2.71,2.71,0,0,0,1.76,1.1"/><path class="cls-4" d="M148.73,91.1h0l0,0q.42.21.42,1v3.79a3.74,3.74,0,0,1,0,.69,1.24,1.24,0,0,1-.29.61v0a.81.81,0,0,0,.46-.57,3.73,3.73,0,0,0,.06-.8V92.17c0-.59-.2-1-.59-1.07M150,92.27v3.88c0,.55.15.86.46.94a1.28,1.28,0,0,0,.3.1c.21,0,.31.13.31.24s-.08.21-.25.21l-.5,0H150l-.5,0-.67,0-.47,0c-.15,0-.22,0-.22-.19s.09-.19.28-.27l.18-.09c.21-.13.32-.44.32-.91V92.37c0-.29,0-.47,0-.56a.68.68,0,0,0-.23-.47,1.47,1.47,0,0,0-.48-.16c-.2-.05-.3-.13-.3-.23s.07-.2.22-.2h.13c.36,0,.6.06.75.06a14.79,14.79,0,0,0,1.48-.06h.09c.13,0,.19.06.19.17s-.08.17-.23.23a.59.59,0,0,0-.31.19q-.21.18-.21.93"/><path class="cls-4" d="M153.18,91.77h0v1.52a.35.35,0,0,0,.39.4h.29a.91.91,0,0,0,.8-.33,2.37,2.37,0,0,0,.14-.28c.07-.18.16-.28.26-.28s.15.07.15.21l0,.22a3.11,3.11,0,0,0,0,.43c0,.13,0,.27,0,.45s0,.46,0,.75V95l0,.14-.11,0q-.13,0-.18-.27c0-.06,0-.15-.06-.28a.69.69,0,0,0-.36-.43,1.35,1.35,0,0,0-.56-.08h-.35a.34.34,0,0,0-.32.14.92.92,0,0,0-.06.4v1.51a1.35,1.35,0,0,0,.12.71c.09.13.29.19.61.19a2.28,2.28,0,0,0,1.6-.56,3.84,3.84,0,0,0,.31-.41c.14-.19.23-.28.26-.28s.13.06.13.19a2,2,0,0,1-.35,1.06,1.18,1.18,0,0,1-.8.52,2.25,2.25,0,0,1-.4,0,2.93,2.93,0,0,1-.37,0h-.77l-.54,0c-.3,0-.62,0-.94,0l-.49,0c-.15,0-.22,0-.22-.19s.07-.17.22-.25l.19-.13a.93.93,0,0,0,.37-.89V92.37a1.4,1.4,0,0,0-.25-1,1.24,1.24,0,0,0-.48-.2c-.2,0-.3-.12-.3-.22l.07-.15.16,0h.11c.53,0,1.07.07,1.64.07l.67,0,.75,0,1,0a.4.4,0,0,1,.3.06.48.48,0,0,1,.06.29v.2c0,.09,0,.21,0,.37v.46c0,.13-.05.19-.14.19s-.15-.07-.17-.23a.72.72,0,0,0-.07-.33c-.16-.37-.67-.55-1.51-.55a1.07,1.07,0,0,0-.51.08.52.52,0,0,0-.22.48m1.48-.71h0v0a1.57,1.57,0,0,1,.57.19.83.83,0,0,1,.3.34l.05,0a.62.62,0,0,0-.15-.47A.58.58,0,0,0,155,91h-.32Zm-.32,2.84h0v0l.22.08.19.13h0l0-.58h0a1,1,0,0,1-.38.31m.09,3.32h0v0h.08l.24,0a1.08,1.08,0,0,0,.73-.22,1.15,1.15,0,0,0,.41-.63l0,0a2.26,2.26,0,0,1-1.44.83m-2.55-6.12a.91.91,0,0,1,.37.66,1.79,1.79,0,0,1,0,.34v3.79a3.74,3.74,0,0,1-.05.69,1.28,1.28,0,0,1-.29.62.68.68,0,0,0,.47-.54,3.86,3.86,0,0,0,.06-.8V92.17c0-.58-.2-.94-.59-1.07"/><path class="cls-4" d="M162.3,91.63v.28h0c-.12-.45-.29-.72-.51-.8l0,0a.69.69,0,0,1,.42.15.53.53,0,0,1,.12.41m-.15,5.43,0,.09,0,0-4.33-5.5a3.24,3.24,0,0,0-.53-.5v0a2.21,2.21,0,0,1,1,.81L162,96.75a.45.45,0,0,1,.11.31m-4.66-1h0l0,.33,0,.16a.71.71,0,0,1-.49.76l0,0a2,2,0,0,0,.41-1.22m5.85-5.17c0-.11-.06-.17-.18-.17l-.47,0-.32,0H162a2.93,2.93,0,0,1-.44,0,3,3,0,0,0-.44,0l-.14,0-.05.13q0,.12.33.24l.46.16c.24.18.35.59.35,1.23V95c0,.31,0,.47-.12.47s-.2-.11-.36-.32l-3.16-4.07q-.27-.36-.51-.36l-.36,0a2.71,2.71,0,0,1-.47,0,1,1,0,0,1-.25,0,.85.85,0,0,0-.24,0q-.18,0-.18.21c0,.09.1.15.27.19a1.19,1.19,0,0,1,.44.18,2.1,2.1,0,0,1,.28,1.25v2.07a9.47,9.47,0,0,1-.09,1.3,3.28,3.28,0,0,1-.18.86,1.36,1.36,0,0,1-.33.37l-.26.21c0,.17,0,.25.17.25l.37,0a5.25,5.25,0,0,1,.65,0,4.66,4.66,0,0,1,.61,0l.34,0c.16,0,.23-.06.23-.19s-.1-.18-.32-.23a1.11,1.11,0,0,1-.48-.2,1.66,1.66,0,0,1-.28-1c0-.15,0-.5,0-1V92.78c0-.27,0-.41.11-.41s.12.06.22.19l3.71,4.71.09.12c.18.23.31.34.4.34l.1-.1a1.09,1.09,0,0,0,0-.31l.06-4.92a2.58,2.58,0,0,1,.07-.76.62.62,0,0,1,.23-.31l.28-.18c.12-.08.18-.16.18-.23"/><path class="cls-4" d="M167,90.63h0a3.71,3.71,0,0,1,1.75.5.87.87,0,0,0,.25.1c.06,0,.12,0,.17-.15s.09-.15.14-.15.17.12.17.35v.09c0,.19,0,.52.07,1l.07.59c0,.12,0,.18-.13.18s-.15-.09-.24-.27a6,6,0,0,0-.32-.6,2.83,2.83,0,0,0-.9-.89,2.22,2.22,0,0,0-1.18-.35,1.62,1.62,0,0,0-1.45.9,3.41,3.41,0,0,0-.46,1.81,4.12,4.12,0,0,0,.58,2.21A2,2,0,0,0,167.31,97a2.44,2.44,0,0,0,1.73-.76l.26-.31c.13-.16.23-.23.28-.23s.12.05.12.15-.2.49-.6.9a3.08,3.08,0,0,1-2.28.92,2.76,2.76,0,0,1-2.18-.93,3.49,3.49,0,0,1-.79-2.38,4.08,4.08,0,0,1,.85-2.62A2.8,2.8,0,0,1,167,90.63m1.29.67h0l0,0a3,3,0,0,1,1,1.15l0,0a1.27,1.27,0,0,0-.29-.78,1.9,1.9,0,0,0-.71-.39m-1.94,6.28v0a3,3,0,0,1-1.62-1.24,3.76,3.76,0,0,1-.54-2.06,4,4,0,0,1,.33-1.59,3.83,3.83,0,0,1,.92-1.33l0,0A3.71,3.71,0,0,0,164,94.36a3.59,3.59,0,0,0,.6,2.12,2.71,2.71,0,0,0,1.76,1.1"/><path class="cls-4" d="M172.17,91.77h0v1.52c0,.27.13.4.38.4h.3a.89.89,0,0,0,.79-.33,2.37,2.37,0,0,0,.14-.28c.08-.18.17-.28.27-.28s.14.07.14.21l0,.22c0,.14,0,.29,0,.43s0,.27,0,.45,0,.46,0,.75V95l0,.14-.11,0q-.13,0-.18-.27c0-.06,0-.15-.06-.28a.64.64,0,0,0-.36-.43,1.33,1.33,0,0,0-.55-.08h-.35a.35.35,0,0,0-.33.14,1.17,1.17,0,0,0-.05.4v1.51a1.5,1.5,0,0,0,.11.71c.09.13.29.19.61.19a2.28,2.28,0,0,0,1.6-.56,3.41,3.41,0,0,0,.32-.41c.14-.19.22-.28.26-.28s.12.06.12.19a2,2,0,0,1-.35,1.06,1.16,1.16,0,0,1-.79.52,2.41,2.41,0,0,1-.4,0,3.07,3.07,0,0,1-.38,0h-.76l-.55,0c-.3,0-.61,0-.94,0l-.49,0c-.14,0-.22,0-.22-.19s.08-.17.22-.25l.2-.13a1,1,0,0,0,.36-.89V92.37a1.4,1.4,0,0,0-.25-1,1.11,1.11,0,0,0-.48-.2c-.2,0-.3-.12-.3-.22l.07-.15.17,0h.1c.53,0,1.08.07,1.64.07l.67,0,.76,0,.95,0a.4.4,0,0,1,.3.06.48.48,0,0,1,.06.29v.57c0,.17,0,.29,0,.37v.09c0,.13,0,.19-.15.19s-.15-.07-.17-.23a.88.88,0,0,0-.06-.33c-.17-.37-.67-.55-1.51-.55a1.12,1.12,0,0,0-.52.08.52.52,0,0,0-.21.48m1.47-.71h0v0a1.65,1.65,0,0,1,.57.19,1,1,0,0,1,.3.34l0,0a.66.66,0,0,0-.14-.47A.61.61,0,0,0,174,91h-.33Zm-.32,2.84h0v0l.23.08.19.13h0l0-.58h-.05a.89.89,0,0,1-.38.31m.09,3.32h0v0h.09l.24,0a1.09,1.09,0,0,0,.73-.22,1.26,1.26,0,0,0,.41-.63l0,0a2.26,2.26,0,0,1-1.45.83m-2.54-6.12a.94.94,0,0,1,.37.66,1.83,1.83,0,0,1,0,.34v3.79a3,3,0,0,1,0,.69,1.19,1.19,0,0,1-.29.62.65.65,0,0,0,.47-.54,3.86,3.86,0,0,0,.06-.8V92.17c0-.58-.19-.94-.58-1.07"/><path class="cls-4" d="M179.34,92.07h-.05a2.31,2.31,0,0,0-.95-1v0a1.3,1.3,0,0,1,.71.31,1.13,1.13,0,0,1,.29.74m-1.43,2.14.33.16a2.49,2.49,0,0,1,.94.66,1.15,1.15,0,0,1,.29.83l0,.22-.06.26,0,0V96c0-.57-.53-1.13-1.7-1.66l-.08,0a3.37,3.37,0,0,1-1.21-.82,1.56,1.56,0,0,1-.33-1,2,2,0,0,1,.07-.5,3.57,3.57,0,0,1,.22-.53l0,0a2.06,2.06,0,0,0-.18.82c0,.75.57,1.39,1.73,1.93m-1.46,2.84,0,0,0,0c-.11,0-.18-.07-.21-.22l-.29-1.37v-.14h0l0,.06.48,1.56v.06Zm3.21-4.35a5.28,5.28,0,0,0-.06-.62,3.23,3.23,0,0,1-.06-.66v-.34c0-.14,0-.22-.15-.22l-.18.08L179,91a2,2,0,0,1-.54-.18,2.05,2.05,0,0,0-.81-.18,1.67,1.67,0,0,0-1.27.54,1.87,1.87,0,0,0-.51,1.35,1.9,1.9,0,0,0,.3,1.12,4.34,4.34,0,0,0,1.49,1l0,0c1,.46,1.44.92,1.44,1.39a1.29,1.29,0,0,1-.35.93,1.2,1.2,0,0,1-.89.36,1.8,1.8,0,0,1-1.53-1.15c-.07-.17-.14-.34-.2-.51s-.19-.4-.24-.4-.19.08-.19.23l.33,1.57,0,.09a.29.29,0,0,0,.26.26,4.69,4.69,0,0,1,.72.2,2.7,2.7,0,0,0,.72.14,1.91,1.91,0,0,0,1.48-.58,2.26,2.26,0,0,0,.56-1.6,2.11,2.11,0,0,0-.55-1.51,3.89,3.89,0,0,0-1.16-.66l-.25-.09a3.57,3.57,0,0,1-.83-.44,1,1,0,0,1-.44-.82.87.87,0,0,1,.31-.7,1,1,0,0,1,.69-.25,1.49,1.49,0,0,1,.83.25,1.68,1.68,0,0,1,.63.64,3.4,3.4,0,0,1,.24.6c.05.21.13.32.22.32s.13-.06.13-.18"/><path class="cls-4" d="M140.11,90.24h-.06a3.14,3.14,0,0,0-1.28-1.36v0a1.79,1.79,0,0,1,.95.41,1.51,1.51,0,0,1,.39,1M138.2,93.1l.45.2a3.58,3.58,0,0,1,1.25.88,1.52,1.52,0,0,1,.38,1.11l0,.3c0,.11,0,.23-.08.35l-.07,0,0-.1v-.31c.05-.76-.7-1.5-2.27-2.21l-.11,0a4.34,4.34,0,0,1-1.6-1.1,2.06,2.06,0,0,1-.44-1.36,2.3,2.3,0,0,1,.08-.66,3.67,3.67,0,0,1,.3-.71l.05,0a2.64,2.64,0,0,0-.26,1.1q0,1.5,2.31,2.58m-1.94,3.78,0,.05,0,0c-.15,0-.25-.1-.29-.29l-.38-1.83v-.19h.05l0,.07.65,2.09v.08Zm4.28-5.8a7.76,7.76,0,0,0-.08-.83,5.43,5.43,0,0,1-.09-.88v-.25l0-.2c0-.19-.06-.29-.21-.29a.94.94,0,0,0-.24.1.55.55,0,0,1-.28.07,2.75,2.75,0,0,1-.72-.24,2.79,2.79,0,0,0-1.08-.24,2.25,2.25,0,0,0-1.69.72,2.83,2.83,0,0,0-.28,3.29,5.93,5.93,0,0,0,2,1.27l.05,0c1.28.61,1.93,1.23,1.93,1.85a1.67,1.67,0,0,1-.48,1.24,1.56,1.56,0,0,1-1.18.47,2.38,2.38,0,0,1-2-1.53c-.1-.22-.19-.45-.28-.67s-.25-.53-.31-.53-.25.1-.25.3l.43,2.1,0,.11a.38.38,0,0,0,.35.35,7.79,7.79,0,0,1,1,.26,3.15,3.15,0,0,0,1,.19,2.59,2.59,0,0,0,2-.78,3,3,0,0,0,.73-2.13,2.74,2.74,0,0,0-.72-2,4.74,4.74,0,0,0-1.56-.88l-.33-.13a5,5,0,0,1-1.11-.58,1.36,1.36,0,0,1-.57-1.1,1.18,1.18,0,0,1,.4-.93,1.36,1.36,0,0,1,.93-.34,2,2,0,0,1,1.1.33,2.31,2.31,0,0,1,.84.86,4.41,4.41,0,0,1,.32.81c.08.27.17.41.29.41s.18-.07.18-.23"/><path class="cls-4" d="M125.45,94.39a4.26,4.26,0,0,1-.28,1.6,2.29,2.29,0,0,1-1,1.21l0,0a3.07,3.07,0,0,0,1-2.55,5,5,0,0,0-.43-2.14A2.63,2.63,0,0,0,123.31,91l0,0a2.73,2.73,0,0,1,1.6,1.31,4.21,4.21,0,0,1,.51,2.12m-1-2.11a5.06,5.06,0,0,1,.54,2.4,3.12,3.12,0,0,1-.52,1.88,1.84,1.84,0,0,1-1.62.8,2,2,0,0,1-1.85-1.19,5.08,5.08,0,0,1-.51-2.38,3.29,3.29,0,0,1,.5-1.91,1.82,1.82,0,0,1,1.61-.82,2,2,0,0,1,1.85,1.22m-3.73-.76a3.55,3.55,0,0,0-1,2.66,3.67,3.67,0,0,0,2,3.38l0,0a3.37,3.37,0,0,1-1.65-1.24,3.53,3.53,0,0,1-.62-2.06,4,4,0,0,1,.32-1.56,3.43,3.43,0,0,1,.89-1.27Zm5.44,2.6a3.53,3.53,0,0,0-.95-2.53,3.15,3.15,0,0,0-2.38-1,3.33,3.33,0,0,0-2.5,1,3.94,3.94,0,0,0-.09,5.19,3.12,3.12,0,0,0,2.37,1,3.41,3.41,0,0,0,2.53-1,3.67,3.67,0,0,0,1-2.68"/><path class="cls-4" d="M107.28,96.37a1.2,1.2,0,0,1-.09.55.83.83,0,0,1-.32.35v0a1.21,1.21,0,0,0,.22-.83L107,92.83v-.18a3.88,3.88,0,0,1,.06-.74,2.21,2.21,0,0,1,.18-.53l0,0a2.83,2.83,0,0,0,0,.5l.1,4.19Zm-2.83.52-.09.09-.12-.13-2-4.64a2.44,2.44,0,0,0-.73-1.08v-.06q.57.17,1.11,1.47l1.66,4c.06.15.1.23.1.25l0,.12m-2.57-.78a2.38,2.38,0,0,1,0,.34v.2a.68.68,0,0,1-.13.44.64.64,0,0,1-.42.2v-.06a.81.81,0,0,0,.31-.4,2,2,0,0,0,.14-.72Zm6-3.94v-.09c0-.43.1-.69.29-.8l.31-.13c.14-.06.21-.13.21-.19a.18.18,0,0,0-.2-.21l-.27,0-.4,0-.22,0-.22,0c-.1,0-.17.07-.22.2L105,95.68l-.13.12-.12-.13-2-4.62c-.09-.2-.18-.3-.28-.3h-.09a3.77,3.77,0,0,1-.47,0,4.68,4.68,0,0,1-.67,0h-.09c-.11,0-.17.06-.17.18s.07.15.21.21l.32.14a1.16,1.16,0,0,1,.29.52,3.5,3.5,0,0,1,.09,1l-.11,2.66c0,.26,0,.42,0,.49a2.71,2.71,0,0,1-.28,1,2.65,2.65,0,0,1-.29.28c-.16.14-.23.22-.23.24l0,.15.12.06.31,0,.61,0,.53,0,.18,0h.18l.17,0,0-.14a.24.24,0,0,0-.2-.23.87.87,0,0,1-.29-.14c-.29-.09-.43-.43-.43-1l.08-2.82,0-.2,0-.06.07,0,.07.15,1.76,4.17,0,0q.06.18.18.18l.13-.06.08-.15,1.9-4.15.11-.18.07-.07s.07.09.07.23l.12,3v.22a.73.73,0,0,1-.28.66l-.17.12c-.12.08-.19.16-.19.23s.07.2.22.2l.37,0,.68,0,.66,0,.39,0a.21.21,0,0,0,.23-.23c0-.09-.06-.14-.19-.17a.72.72,0,0,1-.59-.52,2.32,2.32,0,0,1-.08-.66Z"/><path class="cls-4" d="M94.47,94.19a3,3,0,0,1-1.29,2.72l0,0a3.08,3.08,0,0,0,1.08-2.59,4.21,4.21,0,0,0-.44-1.92,2.47,2.47,0,0,0-1.37-1.26v0A2.48,2.48,0,0,1,94,92.22a3.78,3.78,0,0,1,.51,2m-1-2.09a3.44,3.44,0,0,1,.66,2.17,3.22,3.22,0,0,1-.61,2,2.12,2.12,0,0,1-1.79.86.94.94,0,0,1-.87-.35,2.39,2.39,0,0,1-.16-1v-3.7a1.15,1.15,0,0,1,.18-.74,1,1,0,0,1,.69-.17,2.26,2.26,0,0,1,1.9.93m-3.5,3.77a4.49,4.49,0,0,1,0,.79.85.85,0,0,1-.46.57v0a1.26,1.26,0,0,0,.25-.45,2.75,2.75,0,0,0,.07-.73V92.15c0-.49-.13-.81-.4-1v0c.4.11.59.46.59,1.06Zm5.3-2a2.9,2.9,0,0,0-.93-2.31,3.53,3.53,0,0,0-2.39-.81h-.28l-.85,0-.57,0-.46,0a3.88,3.88,0,0,1-.57,0l-.35,0c-.17,0-.26.07-.26.22s.08.16.24.2l.37.11a.7.7,0,0,1,.34.42,2.52,2.52,0,0,1,0,.57v4a.89.89,0,0,1-.35.84l-.15.08c-.18.1-.27.19-.27.28s.07.17.2.16h.07c.71,0,1.16-.07,1.35-.07a5.67,5.67,0,0,1,.61,0l.25,0h.32a3.45,3.45,0,0,0,2.58-1.06,3.76,3.76,0,0,0,1-2.72"/><path class="cls-4" d="M86.75,96.57a.69.69,0,0,1-.34.62l0,0,.15-.21a.72.72,0,0,0,0-.28,1.39,1.39,0,0,0,0-.27,2,2,0,0,0-.1-.3L85,92.41l0-.08a1,1,0,0,1-.06-.19c0-.09,0-.14.11-.14s.08,0,.11.14L86.65,96a1.59,1.59,0,0,1,.1.59m-2-4.11.13.18.64,1.64.06.18,0,.11-.07.11-.22,0h-1a1.08,1.08,0,0,1-.32,0l-.08-.12v-.1l.73-1.85c0-.09.08-.14.14-.14m-1.92,4a1,1,0,0,1-.31.83.54.54,0,0,1-.35.11l0,0a2.23,2.23,0,0,0,.65-1l0,0Zm5.61,1c0-.1-.07-.18-.19-.24l-.15-.07a.9.9,0,0,1-.54-.58l-2.3-5.79c0-.12-.1-.18-.18-.18l-.14.14-2.27,5.5a2.17,2.17,0,0,1-.56.91l-.18.09c-.14.06-.2.13-.2.22s.06.18.2.18l.27,0,.51,0,.45,0h.28l.43,0,.16,0,0-.14c0-.09-.11-.17-.32-.22h0A1.18,1.18,0,0,1,83.3,97a.45.45,0,0,1-.15-.35l0-.15,0-.19.25-.74a.58.58,0,0,1,.25-.36,1.16,1.16,0,0,1,.45,0H85.4a1.22,1.22,0,0,1,.42,0,.66.66,0,0,1,.24.36l.26.66.07.2,0,.22a.59.59,0,0,1-.33.51c-.21.13-.32.21-.32.25l0,.14.09,0H86c.42,0,.8-.05,1.12-.05h.3l.4,0,.5,0c.11,0,.17,0,.17-.18"/><path class="cls-4" d="M72.76,96.23a.92.92,0,0,1-.45.83l0,0a.73.73,0,0,0,.2-.27,1,1,0,0,0,.06-.37,1.8,1.8,0,0,0-.05-.37q-.08-.27-.12-.39l-1.92-4.94,0-.1a1.08,1.08,0,0,1-.09-.26c0-.12.05-.19.15-.19s.1.07.15.19l2,5.12a2,2,0,0,1,.14.78m-2.61-5.47a.83.83,0,0,1,.18.24l.86,2.19.07.24,0,.15-.09.13a1,1,0,0,1-.29,0H69.52a1.25,1.25,0,0,1-.43,0L69,93.55l0-.14L70,91c0-.13.11-.19.18-.19M67.6,96a1.28,1.28,0,0,1-.41,1.11.78.78,0,0,1-.47.15l0,0a3.1,3.1,0,0,0,.87-1.34l0,0Zm7.48,1.39a.38.38,0,0,0-.25-.32l-.2-.09a1.18,1.18,0,0,1-.72-.78L70.84,88.5c-.06-.15-.14-.23-.23-.23s-.14.06-.19.18l-3,7.34A2.9,2.9,0,0,1,66.64,97l-.24.12c-.18.07-.27.17-.27.29s.09.25.27.25l.36,0a5.27,5.27,0,0,1,.68,0l.6,0h.38l.58,0a.25.25,0,0,0,.19-.06.22.22,0,0,0,.07-.19c0-.12-.14-.22-.42-.29h0a1.44,1.44,0,0,1-.63-.27.58.58,0,0,1-.2-.46l0-.2.07-.25.33-1a.8.8,0,0,1,.35-.49,1.49,1.49,0,0,1,.59-.07H71a1.3,1.3,0,0,1,.56.08,1,1,0,0,1,.33.48l.34.87.09.27a1.6,1.6,0,0,1,0,.3.81.81,0,0,1-.44.67c-.29.17-.43.29-.43.34l0,.18.13.08.14,0c.56,0,1.06-.07,1.5-.07l.39,0,.54,0,.67,0c.14,0,.22-.08.22-.25"/><path class="cls-4" d="M21.69,88.68h2.85c.13,0,.34,0,.63,0l.69,0,.8,0c.18,0,.29,0,.35.07a.45.45,0,0,1,.11.31l.1,1.44c0,.13,0,.2,0,.22l-.16.07c-.14,0-.24-.1-.29-.3s-.08-.26-.11-.35a.9.9,0,0,0-.48-.53,2,2,0,0,0-.43-.11,6.12,6.12,0,0,0-.66,0h-.2a2.21,2.21,0,0,0-.67,0q-.24.1-.24.57v5.79a2,2,0,0,0,.15.86,1,1,0,0,0,.49.45,2.21,2.21,0,0,0,.37.09c.28,0,.42.15.42.31a.25.25,0,0,1-.17.26l-.13,0-.67-.06c-.44,0-.79,0-1.06,0H23l-.76,0-.8.06a.37.37,0,0,1-.27-.07l-.07-.19q0-.21.36-.3l.35-.12c.44-.18.66-.6.66-1.27V90c0-.29-.06-.47-.2-.54a1.75,1.75,0,0,0-.59,0,5,5,0,0,0-1,.07,1.09,1.09,0,0,0-.78.62c-.06.21-.13.42-.19.63s-.22.44-.35.44-.19-.1-.19-.28l.11-.76a6.56,6.56,0,0,0,.09-1c0-.37.11-.55.32-.53l.8,0,.48,0Zm-2.13,1.43h0a1.59,1.59,0,0,1,1.12-1v0l-.29,0a.75.75,0,0,0-.66.23,1.08,1.08,0,0,0-.21.73Zm3-1h0l0,0,.17.21.06.24v6.18c0,.7-.12,1.12-.37,1.24l0,0q.6-.14.6-1.44V90.45a6.08,6.08,0,0,0,0-.76.7.7,0,0,0-.43-.54m3-.05v.07a1.41,1.41,0,0,1,1.24.74h0a.88.88,0,0,0-.2-.64.68.68,0,0,0-.58-.2h-.36l-.13,0"/><path class="cls-4" d="M29.42,92.91h0V94.6a7.63,7.63,0,0,0,.06,1.13,1.9,1.9,0,0,0,.2.61,1.55,1.55,0,0,0,1.46.89,1.8,1.8,0,0,0,1.18-.39,1.88,1.88,0,0,0,.64-1.1,6.85,6.85,0,0,0,.11-1.46V92.6a3.75,3.75,0,0,0,0-.68.8.8,0,0,0-.31-.56,1.71,1.71,0,0,0-.44-.11c-.21,0-.31-.11-.31-.22L32,90.9l.18-.05.37,0a4.21,4.21,0,0,0,.57,0,3.4,3.4,0,0,0,.53,0l.32,0c.13,0,.19.05.19.16s-.06.15-.19.21a.86.86,0,0,0-.26.14c-.11.07-.17.34-.2.83v2.13q0,3.5-2.74,3.5a2.14,2.14,0,0,1-2-.92,4.56,4.56,0,0,1-.47-2.34V92.19c0-.44-.1-.72-.31-.83l-.38-.1c-.17-.05-.26-.13-.26-.22s.08-.19.24-.19l.4,0a5.53,5.53,0,0,0,.71,0,6.32,6.32,0,0,0,.71,0l.46,0,.19,0,.06.13c0,.07-.07.14-.22.21l-.3.13a.64.64,0,0,0-.18.39,9,9,0,0,0,0,1.16m-1.14-1.64h0v0c.17.14.26.5.26,1.1v1.78a7.77,7.77,0,0,0,.2,2.16,1.91,1.91,0,0,0,1.48,1.24v0a2.06,2.06,0,0,1-1.27-1.19,6.32,6.32,0,0,1-.19-1.89V92.35c0-.2,0-.44-.1-.74a.71.71,0,0,0-.36-.34m4.35-.16v0a.83.83,0,0,1,.59.91h0V91.6a.43.43,0,0,0-.35-.46,1.26,1.26,0,0,0-.3,0"/><path class="cls-4" d="M42.93,94h0q0,.27.09.27l.08,0,.09-.08,1-1c.82-.84,1.23-1.39,1.23-1.64s-.09-.22-.27-.26h-.06a.21.21,0,0,1-.2-.22c0-.11.06-.16.18-.16l.44,0a3.59,3.59,0,0,0,.53,0,3.79,3.79,0,0,0,.53,0l.36,0c.14,0,.21.06.21.19s-.07.16-.21.22a1.45,1.45,0,0,0-.29.14,4.33,4.33,0,0,0-1.2,1l-1,1-.14.17,0,.13,0,.13.1.18,1.69,2.46a2.22,2.22,0,0,0,.63.68,1.12,1.12,0,0,0,.32.2c.11,0,.16.09.16.15s-.07.24-.21.24l-.35,0-.35,0-.27,0-.22,0c-.12,0-.24-.11-.38-.31l-2-2.93,0,0-.1.08-.28.27a.64.64,0,0,0-.12.45V96a4.44,4.44,0,0,0,0,.63.65.65,0,0,0,.29.51,1.3,1.3,0,0,0,.34.16c.15.06.22.14.22.23s-.06.21-.2.2l-.43,0-.67,0-.76,0-.48,0q-.21,0-.21-.18t.21-.24a1.94,1.94,0,0,0,.32-.17,1.8,1.8,0,0,0,.24-1.07v-3.6a1.82,1.82,0,0,0-.24-1.07,1,1,0,0,0-.47-.14c-.21,0-.31-.07-.31-.21s.07-.2.23-.2l.41,0a6.23,6.23,0,0,0,.76,0h.55l.57,0,.17,0c.11,0,.17.05.17.18s-.07.15-.2.21l-.31.16a1.24,1.24,0,0,0-.23.89Zm2.41-2.91h0v0a.42.42,0,0,1,.28.38.89.89,0,0,1-.16.42l0,0,.06-.07a.8.8,0,0,0,.27-.47c0-.19-.16-.3-.47-.34m-1.51,3.56h0L45.39,97c.25.37.43.55.55.55l.08-.07L46,97.33l-.1-.13-2-2.93-.05,0-.11.13,0,.09ZM41.61,91.2l0,0c.28.14.41.46.41,1V96a4.08,4.08,0,0,1,0,.7,1.3,1.3,0,0,1-.3.61l0,0a.83.83,0,0,0,.46-.58,4.36,4.36,0,0,0,.06-.8V92.27c0-.58-.2-.94-.59-1.07"/><path class="cls-4" d="M48.11,91.2h0l0,0a1,1,0,0,1,.42,1V96a3.87,3.87,0,0,1,0,.7,1.2,1.2,0,0,1-.29.61v0a.83.83,0,0,0,.46-.58,3.6,3.6,0,0,0,.06-.8V92.27c0-.59-.2-.94-.59-1.07m1.31,1.18v3.87c0,.55.15.87.46,1a1.38,1.38,0,0,0,.3.09c.21,0,.31.13.31.24s-.08.22-.25.22l-.5,0h-.32l-.5,0c-.13,0-.35,0-.67,0l-.47,0c-.15,0-.22-.06-.22-.2s.09-.18.28-.27L48,97.2a1.06,1.06,0,0,0,.32-.92V92.47a5.27,5.27,0,0,0,0-.55.75.75,0,0,0-.23-.48,1.77,1.77,0,0,0-.48-.16c-.2,0-.3-.12-.3-.23s.07-.2.22-.2l.13,0c.36,0,.6,0,.75,0a14.79,14.79,0,0,0,1.48-.06H50c.13,0,.19.06.19.18s-.08.16-.23.22a.66.66,0,0,0-.31.19,1.38,1.38,0,0,0-.21.94"/><path class="cls-4" d="M57.51,93.47h0q0,.3.27.3h2.53q.27,0,.27-.3v-1a1.65,1.65,0,0,0-.25-1,1.42,1.42,0,0,0-.48-.16q-.3,0-.3-.21c0-.13.08-.2.24-.2l.4,0a6.23,6.23,0,0,0,.76,0h.55l.58-.06h.16c.11,0,.16.05.16.18s-.06.16-.19.21a1.31,1.31,0,0,0-.3.18.8.8,0,0,0-.19.3,2.22,2.22,0,0,0-.06.66v3.87c0,.5.15.83.44,1l.24.09c.2,0,.29.12.29.23a.19.19,0,0,1-.21.22l-.46,0a6.16,6.16,0,0,0-.7,0c-.2,0-.46,0-.77,0l-.47,0c-.14,0-.21,0-.21-.19s.08-.18.25-.26l.16-.09a1.09,1.09,0,0,0,.36-.93V94.6a.28.28,0,0,0-.07-.21l-.2-.08H57.78c-.18,0-.27.1-.27.29v1.65a.94.94,0,0,0,.48,1,1.39,1.39,0,0,0,.27.09c.21,0,.32.12.32.23a.2.2,0,0,1-.23.22l-.49,0-.38,0-.38,0c-.2,0-.46,0-.77,0l-.47,0c-.15,0-.22,0-.22-.19s.08-.17.25-.26l.16-.09a1.07,1.07,0,0,0,.37-.93V92.47a1.76,1.76,0,0,0-.25-1,2.29,2.29,0,0,0-.46-.15c-.21,0-.32-.12-.32-.22s.08-.2.23-.2l.41,0a6.4,6.4,0,0,0,.77,0h.54l.58-.06h.16c.11,0,.17.05.17.18s-.07.14-.2.21l-.31.18a1.26,1.26,0,0,0-.23.87ZM56.19,91.2h0l0,0q.42.21.42,1V96a3.87,3.87,0,0,1-.05.7,1.29,1.29,0,0,1-.29.61l0,0a.84.84,0,0,0,.45-.58,3.6,3.6,0,0,0,.06-.8V92.27c0-.58-.2-.94-.59-1.07m4.16,0,0,0c.27.14.41.46.41,1V96a1.91,1.91,0,0,1-.34,1.31l0,0a.86.86,0,0,0,.46-.58,4.71,4.71,0,0,0,0-.8V92.27c0-.59-.19-1-.58-1.07"/><path class="cls-4" d="M54.44,92.17h0a2.42,2.42,0,0,0-1-1v0a1.34,1.34,0,0,1,.71.3,1.13,1.13,0,0,1,.29.74M53,94.32l.34.15a2.8,2.8,0,0,1,.94.66,1.17,1.17,0,0,1,.28.83l0,.23-.06.26-.05,0,0-.08v-.23c0-.57-.53-1.12-1.7-1.65l-.09,0a3.36,3.36,0,0,1-1.2-.82,1.61,1.61,0,0,1-.33-1,2.07,2.07,0,0,1,.06-.5,3.57,3.57,0,0,1,.22-.53l0,0a2,2,0,0,0-.19.83c0,.74.58,1.39,1.73,1.93m-1.46,2.83v0l0,0c-.12,0-.19-.08-.22-.22L51,95.62v-.14h0l0,.06.48,1.56v.06Zm3.22-4.34a4,4,0,0,0-.07-.63,3.13,3.13,0,0,1-.06-.66v-.34c0-.14,0-.21-.16-.21l-.17.07-.21.06a2.09,2.09,0,0,1-.55-.18,2.05,2.05,0,0,0-.81-.18,1.69,1.69,0,0,0-1.26.53A1.86,1.86,0,0,0,51,92.62a1.88,1.88,0,0,0,.31,1.12,4.24,4.24,0,0,0,1.48,1h0c1,.46,1.44.93,1.44,1.39a1.26,1.26,0,0,1-.35.93,1.18,1.18,0,0,1-.89.36,1.78,1.78,0,0,1-1.52-1.15l-.21-.5c-.11-.27-.19-.4-.24-.4s-.18.07-.18.22l.32,1.58,0,.09a.28.28,0,0,0,.26.25,5.35,5.35,0,0,1,.72.2,2.42,2.42,0,0,0,.73.15,1.94,1.94,0,0,0,1.48-.59,2.25,2.25,0,0,0,.55-1.6,2.06,2.06,0,0,0-.54-1.5,3.46,3.46,0,0,0-1.17-.66l-.25-.1a4.07,4.07,0,0,1-.83-.43,1,1,0,0,1-.43-.82.88.88,0,0,1,.3-.7,1,1,0,0,1,.7-.26,1.63,1.63,0,0,1,.83.25,1.73,1.73,0,0,1,.62.64,2.59,2.59,0,0,1,.24.61c.06.21.13.31.22.31s.14-.06.14-.17"/><path class="cls-4" d="M39.77,97.54v0c-.39-.1-.74-.51-1.07-1.2L38,94.91l-.14-.26-.13-.16,0-.06h.08c.11,0,.21.08.28.24l.79,1.66.24.46a3.35,3.35,0,0,0,.23.36,1.13,1.13,0,0,0,.4.4m-1.28-3.68,0,0a1.55,1.55,0,0,0,.31-1A1.89,1.89,0,0,0,38,91.24a1.38,1.38,0,0,1,1,1.46,1.3,1.3,0,0,1-.51,1.16m-.23-2.16a1.78,1.78,0,0,1,.38,1.2,1.11,1.11,0,0,1-.35.92,1.49,1.49,0,0,1-.94.24,2.23,2.23,0,0,1-.52,0c-.14,0-.22-.19-.22-.43V92a1.23,1.23,0,0,1,.09-.57.48.48,0,0,1,.46-.21,1.4,1.4,0,0,1,1.1.45M35.86,96a3.79,3.79,0,0,1-.06.8.65.65,0,0,1-.47.54,1.3,1.3,0,0,0,.3-.61,4.08,4.08,0,0,0,0-.7V92.2c0-.12,0-.24,0-.34a1,1,0,0,0-.37-.66c.39.13.58.49.58,1.07Zm5,1.25c0-.09-.05-.14-.13-.13h-.22a.41.41,0,0,1-.34-.12,1.84,1.84,0,0,1-.33-.51l-.91-1.82a1,1,0,0,0-.31-.41,1.56,1.56,0,0,0,1.17-1.56,1.63,1.63,0,0,0-.64-1.42,2.44,2.44,0,0,0-1.47-.4l-.44,0a3.91,3.91,0,0,1-.43,0l-.4,0-.39,0c-.26,0-.59,0-1-.06l-.19,0-.16.06-.06.14c0,.1.09.17.28.22a1.13,1.13,0,0,1,.44.2,1.58,1.58,0,0,1,.22,1v3.81a1.06,1.06,0,0,1-.36.92l-.18.1c-.16.08-.23.17-.23.26s.07.2.21.18l.47,0c.32,0,.57,0,.77,0a6,6,0,0,1,.69,0l.4,0a.19.19,0,0,0,.21-.21c0-.11-.08-.18-.25-.23L37,97.2c-.27-.13-.41-.44-.41-1V94.83a.37.37,0,0,1,.1-.29.48.48,0,0,1,.28-.06,1,1,0,0,1,.67.17,5.34,5.34,0,0,1,.59,1.15l.08.18a6.73,6.73,0,0,0,.58,1.11,1.21,1.21,0,0,0,1,.65,1.45,1.45,0,0,0,.57-.13c.27-.11.4-.24.4-.4"/></g></g></svg>